<svg xmlns="http://www.w3.org/2000/svg" xmlns:xlink="http://www.w3.org/1999/xlink" width="184.767" height="162.358" viewBox="0 0 184.767 162.358">
  <defs>
    <linearGradient id="linear-gradient" x1="0.5" x2="0.5" y2="1" gradientUnits="objectBoundingBox">
      <stop offset="0" stop-color="#7f02fe"/>
      <stop offset="1" stop-color="#19e0fd"/>
    </linearGradient>
  </defs>
  <g id="folder" transform="translate(-0.169 480.756)">
    <path id="Path_1430" data-name="Path 1430" d="M38.554-480.266a38.7,38.7,0,0,0-11.66,3.935,37.573,37.573,0,0,0-11.3,8.411A40.4,40.4,0,0,0,4.621-446.153,41.6,41.6,0,0,0,35.63-399.116l3.285.83.108,10.5.072,10.541H22.779c-10.288,0-16.858.144-17.725.4-4.224,1.155-6.317,6.787-3.79,10.252.433.578,9.133,11.335,19.349,23.9C36.1-323.632,39.42-319.77,40.684-319.12c1.516.722,1.769.722,72.018.722h70.466l.9-.9.866-.866-.072-52.308-.108-52.272-1.011-1.516c-1.877-2.852-2.419-2.96-13.9-2.96-9.133,0-10.108.072-10.649.614a2.491,2.491,0,0,0-.144,3.574l.9,1.047,9.6.108c9.566.108,9.6.108,9.783.9.108.433.144,21.768.108,47.434l-.108,46.6-18.916-23.248c-11.768-14.476-19.385-23.537-20.216-24.078l-1.3-.794H104l-.686.866a2.545,2.545,0,0,0,.144,3.574c.83.794.9.794,17.255.794,9.025,0,16.57.144,16.786.289.253.144,9.061,10.9,19.638,23.9l19.241,23.645-66.206.108c-36.424.036-66.531,0-66.928-.108-.794-.217-37.471-45.232-37.688-46.243-.325-1.624-1.3-1.588,44.4-1.588H93.208l.722-.939A2.477,2.477,0,0,0,94-376.193l-.686-.866-24.4-.108-24.4-.072v-20.577H61.4c15.667,0,16.967-.072,18.338-.686a5.149,5.149,0,0,0,3.032-4.873c0-2.238-.541-3.177-3.574-6.173l-2.563-2.491.866-.939c4.007-4.3,8.014-13.176,8.916-19.818.217-1.516.469-3.285.541-3.935l.18-1.155h9.53l3.9,3.9,3.9,3.9-.433,1.733a19.333,19.333,0,0,0-.253,4.3c.361,5.6,4.007,9.855,9.675,11.3,6.714,1.7,14.079-2.924,15.342-9.711l.253-1.3,9.927-.108,9.927-.108.686-.866a2.79,2.79,0,0,0-.036-3.646c-.686-.686-1.191-.722-10.83-.722H128.621l-.722-1.444a12.832,12.832,0,0,0-18.555-5.054l-1.769,1.155-3.827-3.827a30.624,30.624,0,0,0-5.162-4.368c-1.011-.4-2.671-.542-6.534-.542H86.891l-.433-2.744c-.866-5.631-4.44-14.3-7-17a2.51,2.51,0,0,0-3.863.108c-1.011,1.3-.939,2.13.289,4.079a39.149,39.149,0,0,1,4.585,10.685c.83,3.1.975,4.332.975,8.844s-.144,5.74-.975,8.808c-1.552,5.92-3.61,9.711-8.808,16.1-1.263,1.552-1.516,2.13-1.336,2.852.108.505,1.769,2.491,3.646,4.368a37.162,37.162,0,0,1,3.393,3.718c0,.144-7.581.253-16.858.253-12.924,0-17.689-.144-20.324-.541A36.171,36.171,0,0,1,10.541-430.63a42.843,42.843,0,0,1-.722-13.79A34.626,34.626,0,0,1,20.5-465.141a34.858,34.858,0,0,1,26.533-10.18,34.461,34.461,0,0,1,17.689,5.487c2.816,1.8,4.26,2.058,5.415.9a2.621,2.621,0,0,0-.325-3.9c-2.635-2.455-8.808-5.343-14.367-6.787A46.876,46.876,0,0,0,38.554-480.266Zm80.609,48.337a7.347,7.347,0,0,1,.866,13.068,7.144,7.144,0,0,1-10.83-5.523A7.225,7.225,0,0,1,119.163-431.93Z" transform="translate(0)" fill="url(#linear-gradient)"/>
    <path id="Path_1431" data-name="Path 1431" d="M342.834-438.119c-1.047,1.3-.939,2.419.289,3.826l1.047,1.191-1.047,1.263c-1.227,1.48-1.3,2.455-.289,3.754,1.011,1.263,2.744,1.263,4.26,0l1.119-.939,1.119.939c1.516,1.263,3.249,1.263,4.26,0,1.047-1.3.939-2.058-.361-3.574l-1.119-1.263.939-1.119c1.336-1.588,1.552-2.707.686-3.863-1.083-1.48-2.924-1.516-4.512-.108l-1.263,1.083-1.011-1.047C345.578-439.419,343.881-439.455,342.834-438.119Z" transform="translate(-218.509 -26.625)" fill="url(#linear-gradient)"/>
    <path id="Path_1432" data-name="Path 1432" d="M77.476-418.083A7.473,7.473,0,0,0,73-410.863c.036,2.671.975,4.332,4.476,7.8l3.1,3.032-3.068,3.141C74.083-393.427,73-391.478,73-388.807a8.012,8.012,0,0,0,10.721,7.581c1.227-.469,2.707-1.624,5.09-3.9l3.321-3.285,3.538,3.466c3.574,3.5,4.837,4.26,7.436,4.26a8.6,8.6,0,0,0,8.158-8.122c0-2.455-.83-3.935-4.3-7.509l-3.429-3.538,3.141-3.141c4.26-4.3,5.2-6.642,4.188-10.288a9.378,9.378,0,0,0-4.476-4.982,8.647,8.647,0,0,0-6.642.036,24.067,24.067,0,0,0-4.693,3.79l-3.141,3.068-3.032-3.1a23.743,23.743,0,0,0-4.512-3.79A8.377,8.377,0,0,0,77.476-418.083Zm9.061,8.88c3.79,3.718,4.585,4.332,5.6,4.332.975,0,1.769-.614,5.559-4.332,3.718-3.646,4.585-4.332,5.559-4.332a2.181,2.181,0,0,1,1.841.939c1.408,1.8,1.083,2.455-3.574,7.184-3.827,3.863-4.332,4.512-4.332,5.6s.505,1.733,4.332,5.6c4.765,4.8,5.126,5.559,3.429,7.22-1.624,1.661-2.383,1.3-7.22-3.429-3.863-3.79-4.585-4.332-5.631-4.332s-1.733.542-5.559,4.332c-4.729,4.657-5.379,4.982-7.184,3.574a2.181,2.181,0,0,1-.939-1.841c0-.975.686-1.841,4.332-5.559,3.754-3.79,4.332-4.585,4.332-5.6s-.578-1.769-4.332-5.559c-4.729-4.765-5.126-5.6-3.538-7.292S81.7-413.932,86.537-409.2Z" transform="translate(-46.539 -39.513)" fill="url(#linear-gradient)"/>
    <path id="Path_1433" data-name="Path 1433" d="M398.857-411.407c-8.483,2.13-11.263,12.49-4.909,18.194a10.435,10.435,0,0,0,16.461-3,7.869,7.869,0,0,0,1.191-4.512,10.241,10.241,0,0,0-2.563-7.22A11.026,11.026,0,0,0,398.857-411.407Zm4.332,5.776c4.946,2.238,3.429,9.747-1.985,9.747a5.1,5.1,0,0,1-3.754-8.772A4.544,4.544,0,0,1,403.189-405.631Z" transform="translate(-249.407 -44.168)" fill="url(#linear-gradient)"/>
    <path id="Path_1434" data-name="Path 1434" d="M26.758-253.125a3.34,3.34,0,0,0-.758,1.48,6.462,6.462,0,0,0,2.13,3.5l1.119,1.047L27.8-245.544c-1.8,1.985-2.13,3.141-1.191,4.4a2.542,2.542,0,0,0,2.022,1.083c1.119.108,1.552-.108,2.96-1.408l1.624-1.516,1.624,1.516c1.408,1.3,1.841,1.516,2.96,1.408a2.542,2.542,0,0,0,2.022-1.083c.939-1.263.614-2.419-1.155-4.368l-1.408-1.516,1.372-1.516c1.8-1.913,2.13-3.1,1.191-4.368a2.542,2.542,0,0,0-2.022-1.083c-1.119-.108-1.552.108-2.924,1.372L33.22-251.1l-1.661-1.48C29.466-254.425,27.913-254.569,26.758-253.125Z" transform="translate(-16.506 -144.835)" fill="url(#linear-gradient)"/>
    <path id="Path_1435" data-name="Path 1435" d="M276.725-125.206a3.893,3.893,0,0,0-2.058,1.949c-1.227,2.563-1.047,2.924,5.848,11.985,2.707,3.538,4.946,6.1,5.74,6.57l1.336.83h19.782c21.876,0,21.3.072,22.418-2.31,1.263-2.707,1.119-3-5.992-12.31-2.671-3.429-4.946-6.029-5.7-6.5-1.227-.686-1.841-.722-20.577-.794C279.324-125.891,278.133-125.855,276.725-125.206Zm38.879,5.162c.325.253,2.166,2.563,4.115,5.162,1.949,2.563,3.682,4.909,3.9,5.126.253.361-3.213.469-17.219.469H288.854l-3.863-5.09c-2.166-2.78-4.043-5.307-4.187-5.6-.253-.433,2.274-.505,17-.505C311.091-120.477,315.206-120.368,315.6-120.043Z" transform="translate(-175.033 -226.801)" fill="url(#linear-gradient)"/>
    <path id="Path_1436" data-name="Path 1436" d="M212.852-103.061c-.975,1.263-.939,2.058.108,3.285.866,1.011.9,1.011,5.451,1.011s4.585,0,5.451-1.011c1.047-1.227,1.083-2.022.108-3.285-.722-.939-.794-.939-5.559-.939S213.574-104,212.852-103.061Z" transform="translate(-135.456 -240.75)" fill="url(#linear-gradient)"/>
    <path id="Path_1437" data-name="Path 1437" d="M204.746-79.572a2.723,2.723,0,0,0-1.083,4.44c.686.686,1.191.722,10.036.722,10.613,0,10.9-.072,10.9-2.491a2.619,2.619,0,0,0-.758-2.058c-.686-.614-1.48-.686-9.675-.758C209.295-79.753,205.035-79.681,204.746-79.572Z" transform="translate(-129.552 -256.261)" fill="url(#linear-gradient)"/>
  </g>
</svg>
