<svg id="add_3_" data-name="add (3)" xmlns="http://www.w3.org/2000/svg" width="44.867" height="44.867" viewBox="0 0 44.867 44.867">
  <g id="Group_211" data-name="Group 211">
    <g id="Group_210" data-name="Group 210">
      <path id="Path_529" data-name="Path 529" d="M22.433,0A22.433,22.433,0,1,0,44.867,22.433,22.458,22.458,0,0,0,22.433,0Zm0,41.391A18.958,18.958,0,1,1,41.391,22.433,18.98,18.98,0,0,1,22.433,41.391Z" fill="#ec407a"/>
    </g>
  </g>
  <g id="Group_213" data-name="Group 213" transform="translate(12.007 11.851)">
    <g id="Group_212" data-name="Group 212">
      <path id="Path_530" data-name="Path 530" d="M156.136,143.926h-6.951v-6.951a1.738,1.738,0,0,0-3.475,0v6.951H138.76a1.738,1.738,0,1,0,0,3.475h6.951v6.951a1.738,1.738,0,0,0,3.475,0V147.4h6.951a1.738,1.738,0,0,0,0-3.475Z" transform="translate(-137.022 -135.238)" fill="#ec407a"/>
    </g>
  </g>
</svg>
