<svg xmlns="http://www.w3.org/2000/svg" width="48.522" height="30.262" viewBox="0 0 48.522 30.262">
  <g id="bicycle" transform="translate(0.089 415.013)">
    <path id="Path_1415" data-name="Path 1415" d="M29.713-414.69a.734.734,0,0,0-.478.675c-.009.741.235.826,2.439.826,1.979,0,2.251.056,2.42.544a.884.884,0,0,1-.235.976c-.206.2-.328.216-1.323.244a6.156,6.156,0,0,0-1.3.131.778.778,0,0,0-.31.4c-.084.263-.047.422.338,1.323.235.563.469,1.116.516,1.229l.084.216h-13.1l-.385-.826a9.079,9.079,0,0,1-.394-.891,2.172,2.172,0,0,1,.75-.066c.685,0,.779-.028.985-.235a.689.689,0,0,0,0-1.032c-.225-.235-.235-.235-2.1-.235a14.059,14.059,0,0,1-2.129-.094,2.687,2.687,0,0,1-.619-.422c-.441-.4-.825-.431-1.154-.094a.723.723,0,0,0-.235.563c0,.675,1.248,1.548,2.233,1.548H16.2l.61,1.285.619,1.285-1.276,1.9-1.266,1.9-.544-.272a10.2,10.2,0,0,0-6.782-.666A9.937,9.937,0,0,0,.3-393.35a9.781,9.781,0,0,0,5.957,7.57,8.622,8.622,0,0,0,2.852.722,9.9,9.9,0,0,0,10.3-6.6,11.164,11.164,0,0,0,.5-2.139l.056-.347h1.857l.159.3a2.884,2.884,0,0,0,1.116,1.135,2.886,2.886,0,0,0,2.167,0,2.458,2.458,0,0,0,1.069-3.255l-.206-.441,3.246-4.887c1.792-2.683,3.274-4.859,3.3-4.831s.272.572.553,1.229l.507,1.191-.769.5a9.872,9.872,0,0,0-2.889,13.846,11.778,11.778,0,0,0,2.392,2.458,9.806,9.806,0,0,0,6.773,1.848,8.622,8.622,0,0,0,2.852-.722,9.781,9.781,0,0,0,5.957-7.57,9.919,9.919,0,0,0-7.429-11.163,11.422,11.422,0,0,0-4.784.028l-.666.178-1.173-2.777-1.173-2.777.628-.056A2.215,2.215,0,0,0,35-410.61a2.161,2.161,0,0,0,.685-1.548,2.3,2.3,0,0,0-.75-1.932c-.666-.6-.844-.638-3.03-.666A13.191,13.191,0,0,0,29.713-414.69Zm1.21,8.208c0,.028-1.379,2.12-3.067,4.643l-3.067,4.606-.422-.066a1.451,1.451,0,0,1-.5-.122c-.028-.028-.75-1.52-1.6-3.311s-1.595-3.33-1.66-3.414a.763.763,0,0,0-.844-.216.658.658,0,0,0-.469.713,35.466,35.466,0,0,0,1.585,3.621l1.595,3.339-.347.516-.338.525H19.958L19.911-396a10.365,10.365,0,0,0-3.086-6.088l-.628-.591,1.276-1.923,1.285-1.923h6.088C28.184-406.529,30.923-406.51,30.923-406.482Zm-18.817,3.518a5.06,5.06,0,0,1,1.839.769c0,.056-2.073,3.236-2.3,3.527a2.143,2.143,0,0,1-.432-.131,4.691,4.691,0,0,0-2.336.009,4.1,4.1,0,0,0-2.842,4.5,4.309,4.309,0,0,0,1.154,2.279,4.081,4.081,0,0,0,6.707-1.51l.216-.582,2.12-.028,2.12-.019v.225a9.991,9.991,0,0,1-.75,2.6,8.307,8.307,0,0,1-7.927,4.747,8.382,8.382,0,0,1-7.664-6.116,10.9,10.9,0,0,1-.038-4.268,8.486,8.486,0,0,1,6.6-6.144A9.762,9.762,0,0,1,12.106-402.965Zm28.217-.009a8.476,8.476,0,0,1,6.041,6.013,10.9,10.9,0,0,1-.038,4.268,8.84,8.84,0,0,1-2.758,4.24,9.631,9.631,0,0,1-3.03,1.585,6.069,6.069,0,0,1-2.2.263,6.665,6.665,0,0,1-2.007-.169,8.3,8.3,0,0,1-5.544-4.512,8.277,8.277,0,0,1,1.107-8.958,9.147,9.147,0,0,1,3.8-2.58A8.846,8.846,0,0,1,40.323-402.974ZM16.477-400.2a8.59,8.59,0,0,1,1.36,2.289,10.463,10.463,0,0,1,.516,2.092c0,.159-.225.169-3.424.169H11.506L13.4-398.5l1.9-2.852.347.281A7,7,0,0,1,16.477-400.2Zm-5.872,2.824c.113.047.009.263-.516,1.032a12.708,12.708,0,0,0-.75,1.229.769.769,0,0,0,.3.872,6.927,6.927,0,0,0,1.482.094c1.426,0,1.473.019,1.163.469a2.56,2.56,0,0,1-3.03,1.173,2.539,2.539,0,0,1-.563-4.5A2.649,2.649,0,0,1,10.605-397.374ZM24.77-395.5a.84.84,0,0,1-.6,1.445.7.7,0,0,1-.61-.244.852.852,0,0,1,.61-1.445A.76.76,0,0,1,24.77-395.5Z" transform="translate(0)" fill="#616161" stroke="#707070" stroke-width="0.5"/>
    <path id="Path_1416" data-name="Path 1416" d="M374.8-267.441a.777.777,0,0,0-.422.788c.122.525,2.336,5.628,2.5,5.769a.854.854,0,0,0,.938.038.806.806,0,0,0,.225-.966c-.356-1-2.242-5.347-2.383-5.488A.76.76,0,0,0,374.8-267.441Z" transform="translate(-339.092 -133.432)" fill="#616161" stroke="#707070" stroke-width="0.5"/>
  </g>
</svg>
