<?xml version="1.0" encoding="UTF-8" standalone="no"?>
<!-- Created with Inkscape (http://www.inkscape.org/) -->

<svg
   width="210mm"
   height="297mm"
   viewBox="0 0 210 297"
   version="1.1"
   id="svg5"
   xml:space="preserve"
   xmlns:inkscape="http://www.inkscape.org/namespaces/inkscape"
   xmlns:sodipodi="http://sodipodi.sourceforge.net/DTD/sodipodi-0.dtd"
   xmlns="http://www.w3.org/2000/svg"
   xmlns:svg="http://www.w3.org/2000/svg"><sodipodi:namedview
     id="namedview7"
     pagecolor="#ffffff"
     bordercolor="#000000"
     borderopacity="0.25"
     inkscape:showpageshadow="2"
     inkscape:pageopacity="0.0"
     inkscape:pagecheckerboard="0"
     inkscape:deskcolor="#d1d1d1"
     inkscape:document-units="mm"
     showgrid="false" /><defs
     id="defs2" /><g
     inkscape:label="Layer 1"
     inkscape:groupmode="layer"
     id="layer1"><g
       id="place"
       transform="matrix(3.8291719,0,0,4.5989543,-180.68593,3.7019867)"
       style="fill:#000000"><g
         id="Group_252"
         data-name="Group 252"
         transform="translate(48.886)"
         style="fill:#000000"><g
           id="Group_251"
           data-name="Group 251"
           style="fill:#000000"><path
             id="Path_1404"
             data-name="Path 1404"
             d="m 95.5,11 a 25.555,25.555 0 0 0 -42.016,0 25.559,25.559 0 0 0 -2.976,23.548 20.129,20.129 0 0 0 3.71,6.125 L 72.8,62.512 a 2.211,2.211 0 0 0 3.37,0 L 94.758,40.684 A 20.148,20.148 0 0 0 98.467,34.567 25.563,25.563 0 0 0 95.5,11 Z M 94.323,33.017 A 15.786,15.786 0 0 1 91.4,37.8 0.08,0.08 0 0 0 91.39,37.812 L 74.49,57.667 57.575,37.8 A 15.8,15.8 0 0 1 54.65,33 a 21.141,21.141 0 0 1 2.471,-19.481 21.129,21.129 0 0 1 34.734,0 21.145,21.145 0 0 1 2.468,19.498 z"
             transform="translate(-48.886)"
             fill="#ffffff"
             style="fill:#000000" /></g></g><g
         id="Group_254"
         data-name="Group 254"
         transform="translate(62.096,13.13)"
         style="fill:#000000"><g
           id="Group_253"
           data-name="Group 253"
           style="fill:#000000"><path
             id="Path_1405"
             data-name="Path 1405"
             d="m 168.147,106.219 a 12.393,12.393 0 1 0 12.393,12.393 12.407,12.407 0 0 0 -12.393,-12.393 z m 0,20.359 a 7.967,7.967 0 1 1 7.967,-7.967 7.976,7.976 0 0 1 -7.967,7.967 z"
             transform="translate(-155.754,-106.219)"
             fill="#ffffff"
             style="fill:#000000" /></g></g></g></g></svg>
