<svg xmlns="http://www.w3.org/2000/svg" width="48" height="47.999" viewBox="0 0 48 47.999">
  <g id="box" transform="translate(0 -0.002)">
    <g id="Group_281" data-name="Group 281" transform="translate(13.687 34.689)">
      <g id="Group_280" data-name="Group 280">
        <path id="Path_239" data-name="Path 239" d="M146.936,370a.937.937,0,1,0,.938.938A.938.938,0,0,0,146.936,370Z" transform="translate(-145.999 -370.002)" fill="#616161"/>
      </g>
    </g>
    <g id="Group_283" data-name="Group 283" transform="translate(0 0.002)">
      <g id="Group_282" data-name="Group 282" transform="translate(0 0)">
        <path id="Path_240" data-name="Path 240" d="M42.2,17.814l5.525-5.525a.937.937,0,0,0-.386-1.559L33.885,6.579A9.376,9.376,0,0,0,16.24,5.873L.658,10.732A.938.938,0,0,0,.274,12.29l5.67,5.67L2.368,23.92a.937.937,0,0,0,.507,1.372L8.062,27.02V41.439a.938.938,0,0,0,.608.878c3.171,1.189,14.954,5.608,15.017,5.631a.934.934,0,0,0,.6.008l.008,0,16.875-5.625a.938.938,0,0,0,.641-.889v-14.8L47.343,24.9a.937.937,0,0,0,.382-1.557ZM34.312,9.377c0-.238-.01-.476-.028-.713l11.015,3.4-4.678,4.678-7.643-2.547A9.4,9.4,0,0,0,34.312,9.377ZM17.843,6.937a7.5,7.5,0,0,1,14.594,2.44,7.5,7.5,0,0,1-7.5,7.5,7.506,7.506,0,0,1-7.094-9.94ZM2.7,12.06,15.662,8.018a9.452,9.452,0,0,0-.1,1.359A9.319,9.319,0,0,0,16.6,13.668L7.378,16.742ZM4.577,23.882l2.964-4.941,15.053,5.018L19.63,28.9ZM23.062,45.712,9.937,40.79V27.645c10.327,3.424,9.822,3.319,10.11,3.319a.938.938,0,0,0,.8-.455l2.211-3.685ZM24,22.451l-13.91-4.637,7.574-2.525a9.372,9.372,0,0,0,14.126.485l6.12,2.04ZM39.937,40.764l-15,5V26.112l3.324,4.154a.938.938,0,0,0,1.013.309l10.663-3.351ZM29.324,28.594,25.571,23.9l15.05-5.017,4.684,4.684Z" transform="translate(0 -0.002)" fill="#616161"/>
      </g>
    </g>
    <g id="Group_285" data-name="Group 285" transform="translate(17.227 35.928)">
      <g id="Group_284" data-name="Group 284">
        <path id="Path_241" data-name="Path 241" d="M187.109,384.061l-2.085-.782a.938.938,0,1,0-.658,1.756l2.085.782a.938.938,0,0,0,.658-1.756Z" transform="translate(-183.757 -383.219)" fill="#616161"/>
      </g>
    </g>
    <g id="Group_287" data-name="Group 287" transform="translate(13.687 38.606)">
      <g id="Group_286" data-name="Group 286">
        <path id="Path_242" data-name="Path 242" d="M152.887,413.948l-5.625-2.109a.938.938,0,0,0-.658,1.756l5.625,2.109a.938.938,0,1,0,.658-1.756Z" transform="translate(-145.995 -411.779)" fill="#616161"/>
      </g>
    </g>
    <g id="Group_289" data-name="Group 289" transform="translate(21.187 5.627)">
      <g id="Group_288" data-name="Group 288">
        <path id="Path_243" data-name="Path 243" d="M235.1,60.275a.938.938,0,0,0-1.326,0l-4.962,4.962L227.6,64.026a.938.938,0,0,0-1.326,1.326l1.875,1.875a.938.938,0,0,0,1.326,0L235.1,61.6A.938.938,0,0,0,235.1,60.275Z" transform="translate(-225.998 -60.001)" fill="#616161"/>
      </g>
    </g>
  </g>
</svg>
