<svg xmlns="http://www.w3.org/2000/svg" width="30.648" height="30.076" viewBox="0 0 30.648 30.076">
  <g id="multiply-mathematical-sign" transform="translate(0 -0.86)">
    <g id="Group_64" data-name="Group 64" transform="translate(0 0.86)">
      <path id="Path_50" data-name="Path 50" d="M.712,30.224a2.429,2.429,0,0,0,3.438,0L15.324,19.049,26.5,30.224a2.431,2.431,0,1,0,3.438-3.438L18.761,15.612l10.6-10.6a2.431,2.431,0,1,0-3.438-3.438l-10.6,10.6-10.6-10.6A2.431,2.431,0,0,0,1.286,5.01l10.6,10.6L.713,26.786A2.43,2.43,0,0,0,.712,30.224Z" transform="translate(0 -0.86)"/>
    </g>
  </g>
</svg>
