<svg xmlns="http://www.w3.org/2000/svg" width="41.654" height="31.072" viewBox="0 0 41.654 31.072">
  <g id="credit-card" transform="translate(0 -65.037)">
    <path id="Path_233" data-name="Path 233" d="M38.847,65.037H6.692a2.811,2.811,0,0,0-2.808,2.808v3.212H2.808A2.811,2.811,0,0,0,0,73.864V93.3a2.811,2.811,0,0,0,2.808,2.808H34.962A2.811,2.811,0,0,0,37.77,93.3V90.089h1.077a2.811,2.811,0,0,0,2.808-2.808V67.845a2.811,2.811,0,0,0-2.808-2.808ZM2.808,72.684H34.962a1.182,1.182,0,0,1,1.18,1.181v2.153H1.627V73.864a1.182,1.182,0,0,1,1.181-1.181ZM1.627,77.645H36.143v3.126H1.627ZM34.962,94.482H2.808A1.182,1.182,0,0,1,1.627,93.3V82.4H36.143V93.3A1.182,1.182,0,0,1,34.962,94.482Zm5.065-7.2a1.182,1.182,0,0,1-1.181,1.181H37.77v-14.6a2.811,2.811,0,0,0-2.808-2.808H5.511V67.845a1.182,1.182,0,0,1,1.18-1.181H38.847a1.182,1.182,0,0,1,1.181,1.181Z" fill="#616161"/>
    <path id="Path_234" data-name="Path 234" d="M153.71,334.263h-4.019a.814.814,0,0,0-.814.814v3.369a.814.814,0,0,0,.814.814h4.019a.814.814,0,0,0,.814-.814v-3.369A.814.814,0,0,0,153.71,334.263Zm-.814,3.369H150.5V335.89H152.9Z" transform="translate(-136.765 -247.323)" fill="#616161"/>
    <path id="Path_235" data-name="Path 235" d="M250.808,334.263h-4.019a.814.814,0,0,0-.814.814v3.369a.814.814,0,0,0,.814.814h4.019a.814.814,0,0,0,.814-.814v-3.369A.814.814,0,0,0,250.808,334.263Zm-.814,3.369H247.6V335.89h2.392Z" transform="translate(-225.964 -247.323)" fill="#616161"/>
    <path id="Path_236" data-name="Path 236" d="M347.906,334.263h-4.019a.814.814,0,0,0-.814.814v3.369a.814.814,0,0,0,.814.814h4.019a.814.814,0,0,0,.814-.814v-3.369A.814.814,0,0,0,347.906,334.263Zm-.814,3.369H344.7V335.89h2.392Z" transform="translate(-315.162 -247.323)" fill="#616161"/>
    <path id="Path_237" data-name="Path 237" d="M56.611,334.263H52.592a.814.814,0,0,0-.814.814v3.369a.814.814,0,0,0,.814.814h4.019a.814.814,0,0,0,.814-.814v-3.369A.813.813,0,0,0,56.611,334.263Zm-.814,3.369H53.405V335.89H55.8v1.742Z" transform="translate(-47.566 -247.323)" fill="#616161"/>
  </g>
</svg>
