<svg xmlns="http://www.w3.org/2000/svg" width="43.315" height="48" viewBox="0 0 43.315 48">
  <g id="filter_1_" data-name="filter (1)" transform="translate(-24.988 0)">
    <path id="Path_43" data-name="Path 43" d="M66.058,0H27.232A2.242,2.242,0,0,0,25.4,3.525c.02.028-.615-.836,14.815,20.167a2.969,2.969,0,0,1,.529,1.7V45.629a2.37,2.37,0,0,0,3.786,1.9L51.1,42.567a3.6,3.6,0,0,0,1.449-2.881v-14.3a2.968,2.968,0,0,1,.529-1.7L67.9,3.525A2.242,2.242,0,0,0,66.058,0ZM50.8,22.041a5.766,5.766,0,0,0-1.064,3.346v14.3a.779.779,0,0,1-.315.624c-.173.128,1.138-.858-5.873,4.427V25.387a5.768,5.768,0,0,0-1.045-3.319c-.017-.024.459.624-9.669-13.162H60.453ZM62.519,6.094H30.772L28.361,2.812H64.929Z" transform="translate(0)"/>
  </g>
</svg>
