<svg xmlns="http://www.w3.org/2000/svg" width="47.398" height="42.255" viewBox="0 0 47.398 42.255">
  <g id="heart" transform="translate(0.249 -28.286)">
    <g id="Group_63" data-name="Group 63" transform="translate(0 28.536)">
      <path id="Path_49" data-name="Path 49" d="M46.884,41.235a13.774,13.774,0,0,0-3.748-8.826,12.051,12.051,0,0,0-8.688-3.872A11.134,11.134,0,0,0,26.3,31.917a16.476,16.476,0,0,0-2.937,4.04,16.476,16.476,0,0,0-2.937-4.04,11.139,11.139,0,0,0-8.152-3.381A11.787,11.787,0,0,0,3.663,32.42,13.937,13.937,0,0,0,.017,41.235C-.392,49.9,6.433,55.719,16.763,64.522c1.816,1.547,3.694,3.148,5.691,4.9l.9.792.9-.792c2.118-1.853,4.105-3.54,6.027-5.171C40.526,55.559,47.289,49.82,46.884,41.235Zm-6.595,9.922c-2.745,3.33-6.731,6.713-11.777,11-1.654,1.4-3.357,2.849-5.153,4.409-1.675-1.456-3.267-2.812-4.814-4.13C13.437,58.077,9.4,54.639,6.635,51.27,3.8,47.814,2.6,44.759,2.762,41.365c.265-5.613,4.451-10.04,9.529-10.08h.074c5.31,0,8.018,4.517,9.161,7.219a1.987,1.987,0,0,0,3.665,0c1.143-2.7,3.85-7.218,9.161-7.218h.074c5.1.04,9.452,4.562,9.713,10.08C44.3,44.715,43.109,47.735,40.289,51.157Z" transform="translate(0 -28.536)" stroke="#000" stroke-width="0.5"/>
    </g>
  </g>
</svg>
