<svg id="information_2_" data-name="information (2)" xmlns="http://www.w3.org/2000/svg" width="34.325" height="34.325" viewBox="0 0 34.325 34.325">
  <g id="Group_292" data-name="Group 292">
    <g id="Group_291" data-name="Group 291">
      <path id="Path_255" data-name="Path 255" d="M17.162,0A17.162,17.162,0,1,0,34.325,17.162,17.153,17.153,0,0,0,17.162,0Zm0,32.037A14.874,14.874,0,1,1,32.037,17.162,14.891,14.891,0,0,1,17.162,32.037Z" fill="#616161"/>
    </g>
  </g>
  <g id="Group_294" data-name="Group 294" transform="translate(16.018 14.064)">
    <g id="Group_293" data-name="Group 293">
      <path id="Path_256" data-name="Path 256" d="M240.074,209.777a1.144,1.144,0,0,0-1.144,1.144v9.652a1.144,1.144,0,1,0,2.288,0v-9.652A1.144,1.144,0,0,0,240.074,209.777Z" transform="translate(-238.93 -209.777)" fill="#616161"/>
    </g>
  </g>
  <g id="Group_296" data-name="Group 296" transform="translate(14.874 8.321)">
    <g id="Group_295" data-name="Group 295">
      <path id="Path_257" data-name="Path 257" d="M224.155,124.122a2.288,2.288,0,1,0,2.288,2.288A2.291,2.291,0,0,0,224.155,124.122Z" transform="translate(-221.867 -124.122)" fill="#616161"/>
    </g>
  </g>
</svg>
