<svg xmlns="http://www.w3.org/2000/svg" width="46.901" height="41.673" viewBox="0 0 46.901 41.673">
  <g id="Group_72" data-name="Group 72" transform="translate(-162 -83.566)">
    <path id="Path_54" data-name="Path 54" d="M7248.938,68.887l2.362-3.544,4.05-3.628,4.556-.844,3.965.844,4.218,3.628,2.362,6.581-1.771,8.184-2.616,3.375-3.8,3.8-13.921,11.727-15.271-13.246-5.231-6.834s-1.012-3.544-1.181-3.965a18.561,18.561,0,0,1-.422-3.712c.084-.422.928-2.869.928-2.869a6.249,6.249,0,0,1,.675-1.856c.422-.591,1.519-2.362,1.519-2.362a6.949,6.949,0,0,1,1.772-1.6,28.742,28.742,0,0,1,3.628-.844s1.518-.591,2.193-.844a3.509,3.509,0,0,1,2.278,0c.591.253,3.038,1.519,3.544,1.687a7.173,7.173,0,0,1,2.615,2.194c.675,1.012,2.277,3.037,2.531,3.628A1.016,1.016,0,0,0,7248.938,68.887Z" transform="translate(-7063 24)" fill="#ff355c"/>
    <g id="heart" transform="translate(162 55.03)">
      <g id="Group_63" data-name="Group 63" transform="translate(0 28.536)">
        <path id="Path_49" data-name="Path 49" d="M46.884,41.235a13.774,13.774,0,0,0-3.748-8.826,12.051,12.051,0,0,0-8.688-3.872A11.134,11.134,0,0,0,26.3,31.917a16.476,16.476,0,0,0-2.937,4.04,16.476,16.476,0,0,0-2.937-4.04,11.139,11.139,0,0,0-8.152-3.381A11.787,11.787,0,0,0,3.663,32.42,13.937,13.937,0,0,0,.017,41.235C-.392,49.9,6.433,55.719,16.763,64.522c1.816,1.547,3.694,3.148,5.691,4.9l.9.792.9-.792c2.118-1.853,4.105-3.54,6.027-5.171C40.526,55.559,47.289,49.82,46.884,41.235Zm-6.595,9.922c-2.745,3.33-6.731,6.713-11.777,11-1.654,1.4-3.357,2.849-5.153,4.409-1.675-1.456-3.267-2.812-4.814-4.13C13.437,58.077,9.4,54.639,6.635,51.27,3.8,47.814,2.6,44.759,2.762,41.365c.265-5.613,4.451-10.04,9.529-10.08h.074c5.31,0,8.018,4.517,9.161,7.219a1.987,1.987,0,0,0,3.665,0c1.143-2.7,3.85-7.218,9.161-7.218h.074c5.1.04,9.452,4.562,9.713,10.08C44.3,44.715,43.109,47.735,40.289,51.157Z" transform="translate(0 -28.536)" fill="#ff355c"/>
      </g>
    </g>
  </g>
</svg>
