<svg xmlns="http://www.w3.org/2000/svg" width="512" height="512" viewBox="0 0 512 512">
  <g id="Group_329" data-name="Group 329" transform="translate(-163 -602)">
    <rect id="Rectangle_895" data-name="Rectangle 895" width="512" height="512" transform="translate(163 602)" fill="#ec407a"/>
    <g id="Moftaki_Logo_Final_Present-03" transform="translate(-1856.972 6694.109)">
      <path id="Path_1437" data-name="Path 1437" d="M3335.793-5991.552a13.631,13.631,0,0,0-5.888,2.325,16.088,16.088,0,0,0-2.99,3.016,15.935,15.935,0,0,0-1.735,3.445,10.832,10.832,0,0,0-.581,3.925,11.872,11.872,0,0,0,1.213,5.694,12.928,12.928,0,0,0,17.47,5.938,12.992,12.992,0,0,0,6.823-8.87,13.255,13.255,0,0,0-.455-6.933,12.952,12.952,0,0,0-9.653-8.39A18.6,18.6,0,0,0,3335.793-5991.552Z" transform="translate(-1111.836)" fill="#fff"/>
      <path id="Path_1438" data-name="Path 1438" d="M3319.311-5891.875a80.584,80.584,0,0,0-11.456,1.559,55.677,55.677,0,0,0-9.358,2.78,6.1,6.1,0,0,0-3.108,3.866,8.156,8.156,0,0,0-.017,2.864,10.144,10.144,0,0,1,.185,1.011c.034.227,1.1,4.717,2.367,9.973s2.308,9.561,2.308,9.578-7.725.034-17.159.034c-19.079,0-17.74-.034-19.012.581a5.654,5.654,0,0,0-2.746,2.746,5.178,5.178,0,0,0-.615,2.653,5.433,5.433,0,0,0,.674,2.813,6.018,6.018,0,0,0,3.782,3c.64.169.977.169,22.39.169,24.251,0,22.2.05,23.552-.606a4.871,4.871,0,0,0,1.482-1.121,4.507,4.507,0,0,0,1.163-1.558c.75-1.542.817-2.6.3-4.869-.194-.825-1.457-6.082-2.813-11.683-1.643-6.806-2.435-10.209-2.375-10.251.16-.093,2.746-.648,4.262-.91a55.353,55.353,0,0,1,28.455,2.224,50.855,50.855,0,0,1,14.969,8.626,35.609,35.609,0,0,1,2.7,2.443c-.025.017-.758.219-1.625.438a55.827,55.827,0,0,0-21.042,10.571,60.159,60.159,0,0,0-12.391,13.646,61.246,61.246,0,0,0-9.982,30.956,14.558,14.558,0,0,0,.2,4.759,5.954,5.954,0,0,0,6.04,4.136,5.51,5.51,0,0,0,2.316-.632,5.9,5.9,0,0,0,2.687-2.729,7.283,7.283,0,0,0,.6-3.428,51.438,51.438,0,0,1,1.272-10.445,49.1,49.1,0,0,1,10.26-20.68,66.25,66.25,0,0,1,5.6-5.593,43.8,43.8,0,0,1,20.772-9.738,47.29,47.29,0,0,1,7.059-.631,5.859,5.859,0,0,0,5.458-3.336,5.761,5.761,0,0,0,.581-2.78c0-2.1-.421-2.915-3.344-6.486-11.439-14-26.618-22.2-44-23.78A84.107,84.107,0,0,0,3319.311-5891.875Z" transform="translate(-1053.32 -91.252)" fill="#fff"/>
      <path id="Path_1439" data-name="Path 1439" d="M2324.618-5310.745a39.567,39.567,0,0,0-23.838,9.931,39.676,39.676,0,0,0-13.317,30.746,39.222,39.222,0,0,0,5.509,19.079,38.418,38.418,0,0,0,6.2,7.918,38.662,38.662,0,0,0,6.579,5.307l1.07.674-17.529.025c-9.645.008-25.422.008-35.067,0l-17.529-.025.623-.413a40.616,40.616,0,0,0,10.925-10.925,44.208,44.208,0,0,0,3.934-7.446,39.65,39.65,0,0,0,2.662-11.608,57.681,57.681,0,0,0-.135-7.472,39.24,39.24,0,0,0-8.516-20.342,39.684,39.684,0,0,0-24-14.228,30.647,30.647,0,0,0-6.865-.514,31.087,31.087,0,0,0-6.907.514,39.779,39.779,0,0,0-28.4,20.966,38.909,38.909,0,0,0-4.347,19.037,38.426,38.426,0,0,0,4.136,16.721,39.836,39.836,0,0,0,13.107,15.044l.969.666-40.391.042c-37.847.042-40.416.051-40.753.186a3.483,3.483,0,0,0-1.306,5.635,3.224,3.224,0,0,0,1.533.952c.421.126,13.874.135,163.062.135h162.607l.514-.177a3.484,3.484,0,0,0,2.081-1.836,2.666,2.666,0,0,0,.219-1.44,2.492,2.492,0,0,0-.27-1.524,3.555,3.555,0,0,0-1.693-1.618l-.564-.27-45.782-.042-45.781-.042.8-.5a43.008,43.008,0,0,0,3.833-2.737,5.7,5.7,0,0,1,1.011-.716c.093-.025,17.058-1.036,37.7-2.257,27.528-1.626,37.35-2.232,36.853-2.274-.371-.034-15.533-.935-33.694-2s-33.121-1.971-33.239-2l-.227-.059.674-1.1a40.117,40.117,0,0,0,5.349-15.247l.067-.505.379-.059c.211-.034,11.389-1.146,24.849-2.468s24.58-2.435,24.715-2.468-10.293-.851-24.765-1.946c-13.755-1.044-25.035-1.912-25.068-1.937a12.058,12.058,0,0,1-.236-1.339,37.974,37.974,0,0,0-3.757-12.054,39.2,39.2,0,0,0-3.791-6.2c-.194-.261-.2-.287-.059-.32.084-.025,8.878-.851,19.542-1.845s19.4-1.811,19.4-1.836-10.689-1.036-23.763-2.257l-23.763-2.207-1.2-.792A39.487,39.487,0,0,0,2324.618-5310.745Zm5.458,10.647a28.93,28.93,0,0,1,15.221,6.267,44.927,44.927,0,0,1,4.481,4.473,29.288,29.288,0,0,1,6.309,15.743,40.312,40.312,0,0,1-.135,6.158,29.169,29.169,0,0,1-5.989,14.236,39.306,39.306,0,0,1-4.919,4.919,29.158,29.158,0,0,1-14.278,6.006,25.751,25.751,0,0,1-3.706.152,22.693,22.693,0,0,1-5.517-.472,28.938,28.938,0,0,1-13.048-6.225,29.211,29.211,0,0,1-10.378-19.744,38.019,38.019,0,0,1,.177-6.663,28.455,28.455,0,0,1,2.7-8.676,29.124,29.124,0,0,1,23.038-16.173A40.333,40.333,0,0,1,2330.076-5300.1Zm-111.224.75a29.292,29.292,0,0,1,14.91,6.427,37.233,37.233,0,0,1,3.993,3.993,29.277,29.277,0,0,1,6.478,15.322,43.268,43.268,0,0,1-.042,6.6,29.265,29.265,0,0,1-6.006,14.455,36.319,36.319,0,0,1-4.246,4.372,29.148,29.148,0,0,1-15.457,6.629,35.31,35.31,0,0,1-6.4,0,29.847,29.847,0,0,1-11.035-3.572,30.182,30.182,0,0,1-10.007-9.341,28.908,28.908,0,0,1-1.752-28.985,29.153,29.153,0,0,1,22.457-15.887,20.025,20.025,0,0,1,4-.168C2217.025-5299.482,2218.28-5299.424,2218.853-5299.348Z" transform="translate(0 -623.443)" fill="#fff"/>
      <path id="Path_1440" data-name="Path 1440" d="M4674.89-4869.692a3.192,3.192,0,0,0-1.845,1.693,3.993,3.993,0,0,0-.295,1.777,17.024,17.024,0,0,1-5.273,11.835,17.134,17.134,0,0,1-11.65,4.869,4.481,4.481,0,0,0-1.541.244,3.5,3.5,0,0,0-1.542,1.558,2.346,2.346,0,0,0-.244,1.323,2.351,2.351,0,0,0,.236,1.28,3.263,3.263,0,0,0,1.559,1.525c.564.27.573.27,1.828.252a23.086,23.086,0,0,0,13.6-4.726,29.044,29.044,0,0,0,4.515-4.523,23.364,23.364,0,0,0,4.675-12.231,6.515,6.515,0,0,0-.21-3.2,3.493,3.493,0,0,0-1.542-1.559A4.349,4.349,0,0,0,4674.89-4869.692Z" transform="translate(-2327.882 -1027.322)" fill="#fff"/>
      <path id="Path_1441" data-name="Path 1441" d="M3075.743-4863.653a3.248,3.248,0,0,0-1.954,1.727c-.21.455-.219.531-.21,1.819a21.932,21.932,0,0,0,2.4,9.813,21.183,21.183,0,0,0,4.456,6.149,21.191,21.191,0,0,0,6.149,4.456,21.933,21.933,0,0,0,9.813,2.4l1.348.008.556-.27a3.193,3.193,0,0,0,1.491-1.524,2.375,2.375,0,0,0,.228-1.323,2.059,2.059,0,0,0-.27-1.348,3.385,3.385,0,0,0-1.457-1.44,3.8,3.8,0,0,0-1.769-.3,17.308,17.308,0,0,1-7.244-1.836,17.259,17.259,0,0,1-7.682-7.708,17.322,17.322,0,0,1-1.82-7.2c-.067-1.222-.093-1.34-.337-1.812a3.327,3.327,0,0,0-1.449-1.44,2.451,2.451,0,0,0-1.179-.261A3.356,3.356,0,0,0,3075.743-4863.653Z" transform="translate(-881.958 -1032.856)" fill="#fff"/>
      <path id="Path_1442" data-name="Path 1442" d="M5520.854-4094.692a2.756,2.756,0,0,0-1.719,1.584c-.118.354-.135,3.757-.135,35.32v34.932l.261.514a2.222,2.222,0,0,0,1.255,1.179,2.6,2.6,0,0,0,3.353-1.2l.227-.429.025-2.654.025-2.662.9.918a21.094,21.094,0,0,0,7.809,5.046,22.046,22.046,0,0,0,6.469,1.188c1.356.017,1.676-.067,2.316-.657a2.428,2.428,0,0,0,.809-1.9,2.338,2.338,0,0,0-.733-1.836c-.589-.581-1-.708-2.477-.783a15.694,15.694,0,0,1-14.859-13.638,17.485,17.485,0,0,1-.1-1.979,13.279,13.279,0,0,1,.455-3.731,15.65,15.65,0,0,1,12.576-11.684c.455-.076,1.364-.168,2.013-.2,1.39-.076,1.845-.227,2.4-.792a2.329,2.329,0,0,0,.725-1.828,2.473,2.473,0,0,0-2.106-2.527,18.421,18.421,0,0,0-3.976.252,20.789,20.789,0,0,0-11.321,5.956l-.91.927-.017-18.751-.025-18.75-.177-.388a2.871,2.871,0,0,0-1.289-1.28A3.621,3.621,0,0,0,5520.854-4094.692Z" transform="translate(-3121.393 -1737.083)" fill="#fff"/>
      <path id="Path_1443" data-name="Path 1443" d="M2164.736-4093.724a20.885,20.885,0,0,0-17.849,16.51c-.4,2-.387.859-.387,28.766v26.323l.236.48a2.631,2.631,0,0,0,4.077.792,2.917,2.917,0,0,0,.548-.792l.278-.564.042-26.492.051-26.492.185-.809a15.86,15.86,0,0,1,5.029-8.769,15.7,15.7,0,0,1,11.9-3.85,15.548,15.548,0,0,1,9.266,4.321,15.734,15.734,0,0,1,4.742,9.653c.068.539.118,3.293.152,8.55l.05,7.75.228.4a2.82,2.82,0,0,0,1.483,1.213,2.636,2.636,0,0,0,2.813-.834c.6-.758.573-.413.573-8.794,0-4.768.033-7.825.093-8.348a15.507,15.507,0,0,1,4.684-9.544,13.514,13.514,0,0,1,2.384-1.929,15.692,15.692,0,0,1,10.007-2.435,15.618,15.618,0,0,1,9.417,4.431,15.938,15.938,0,0,1,4.4,8.07l.227,1.011.042,26.492.042,26.492.177.387a2.581,2.581,0,0,0,1.971,1.5,2.582,2.582,0,0,0,2.754-1.407l.236-.48v-26.281c0-28.177.025-26.686-.43-28.935a21.776,21.776,0,0,0-2.9-7.034,20.887,20.887,0,0,0-12.256-8.845,16.92,16.92,0,0,0-5.222-.59,16.29,16.29,0,0,0-4.919.522,21.033,21.033,0,0,0-13.073,9.771,1.286,1.286,0,0,1-.244.362,6.45,6.45,0,0,1-.531-.809,19.873,19.873,0,0,0-3.041-3.791,19.332,19.332,0,0,0-5.728-4.085,21.035,21.035,0,0,0-6.722-1.92A30.277,30.277,0,0,0,2164.736-4093.724Z" transform="translate(-32.974 -1737.917)" fill="#fff"/>
      <path id="Path_1444" data-name="Path 1444" d="M3685.669-4093.774a20.838,20.838,0,0,0-15.87,11.1,20.473,20.473,0,0,0-2.266,7.935c-.042.556-.084,3.673-.084,6.924v5.913l-3.26.025c-3.235.025-3.277.025-3.715.228a2.966,2.966,0,0,0-1.407,1.533,2.675,2.675,0,0,0,.825,2.873c.7.548.876.573,4.414.573h3.142l.017,17.243.025,17.251.177.387a2.606,2.606,0,0,0,3.664,1.2,2.5,2.5,0,0,0,1.1-1.2l.194-.379.025-17.251.017-17.243h45.394l.034,9.03c.025,10.024,0,9.552.606,11.911a20.929,20.929,0,0,0,13.393,14.5,23.451,23.451,0,0,0,3.824.927,28.231,28.231,0,0,0,5.905,0,21.167,21.167,0,0,0,10.108-4.422,21.053,21.053,0,0,0,7.446-12.694,20.965,20.965,0,0,0,.278-3.631,2.591,2.591,0,0,0-1.533-2.24,2.928,2.928,0,0,0-2.072-.009c-1.112.5-1.592,1.432-1.592,3.092a15.682,15.682,0,0,1-3.968,9.7,15.646,15.646,0,0,1-12.711,5.189,15.66,15.66,0,0,1-14.48-14.093c-.059-.522-.093-3.833-.093-9.03v-8.213l4.785-.025,4.776-.025.421-.21a2.717,2.717,0,0,0,1.23-1.23,2.082,2.082,0,0,0,.2-1.129,1.944,1.944,0,0,0-.227-1.146,3.054,3.054,0,0,0-1.323-1.247c-.379-.177-.488-.177-5.121-.2l-4.742-.025-.017-15.095-.025-15.095-.228-.421a2.436,2.436,0,0,0-2.148-1.373,2.255,2.255,0,0,0-1.971.733c-.825.826-.75-.775-.75,16.283v14.977h-45.4v-6.242a68.843,68.843,0,0,1,.135-7.143,15.667,15.667,0,0,1,13.949-13.393,15.714,15.714,0,0,1,8.356,1.5,16.014,16.014,0,0,1,7.219,7.219,16.438,16.438,0,0,1,1.584,6.318,3.53,3.53,0,0,0,.286,1.685,2.749,2.749,0,0,0,1.381,1.247,3.67,3.67,0,0,0,.986.135,2.452,2.452,0,0,0,2.291-1.466,2.921,2.921,0,0,0,.2-1.525,20.5,20.5,0,0,0-5.981-14.177,20.266,20.266,0,0,0-5.66-4.06,20.305,20.305,0,0,0-5.753-1.87A30.851,30.851,0,0,0,3685.669-4093.774Z" transform="translate(-1418.011 -1737.866)" fill="#fff"/>
      <path id="Path_1445" data-name="Path 1445" d="M2362.629-3988.708a1.3,1.3,0,0,0-.009,2.19,2.568,2.568,0,0,0,1.036.219,10.133,10.133,0,0,1,5.458,1.912,9.974,9.974,0,0,1,4.077,7.581,2.679,2.679,0,0,0,.21,1.078,1.31,1.31,0,0,0,2.1.126c.2-.219.21-.261.21-1.373a11.8,11.8,0,0,0-3.732-8.373,11.934,11.934,0,0,0-7.935-3.487C2362.991-3988.877,2362.882-3988.868,2362.629-3988.708Z" transform="translate(-230.345 -1834.053)" fill="#fff"/>
      <path id="Path_1446" data-name="Path 1446" d="M2799.624-3988.833a1.11,1.11,0,0,0-.624,1.087,1.16,1.16,0,0,0,.606,1.137,5.576,5.576,0,0,0,1.3.219,9.927,9.927,0,0,1,3.546.935,9.921,9.921,0,0,1,5.122,5.644,9.575,9.575,0,0,1,.539,2.755,2.664,2.664,0,0,0,.253,1.23,1.31,1.31,0,0,0,2.224-.11c.135-.253.152-.429.11-1.272a12.461,12.461,0,0,0-10.538-11.658A5.2,5.2,0,0,0,2799.624-3988.833Z" transform="translate(-630.511 -1833.929)" fill="#fff"/>
      <path id="Path_1447" data-name="Path 1447" d="M3977.606-3988.8a1.277,1.277,0,0,0-.606,1.078,1.19,1.19,0,0,0,.4.96c.244.27.329.286,1.617.4a9.77,9.77,0,0,1,6.225,2.872,9.932,9.932,0,0,1,2.923,6.621,2.413,2.413,0,0,0,.211,1.028,1.3,1.3,0,0,0,2.19-.009c.16-.253.168-.362.126-1.415a11.8,11.8,0,0,0-3.622-8.053,11.822,11.822,0,0,0-4.911-3.058C3980.521-3988.928,3978.171-3989.147,3977.606-3988.8Z" transform="translate(-1709.283 -1833.952)" fill="#fff"/>
      <path id="Path_1448" data-name="Path 1448" d="M5882.965-3850.775a5.078,5.078,0,0,0-3.226,7.219,5.511,5.511,0,0,0,2.215,2.2,4.951,4.951,0,0,0,5.821-.952,4.779,4.779,0,0,0,1.508-3.555,5.017,5.017,0,0,0-2.8-4.523,6.467,6.467,0,0,0-1.146-.429A6.793,6.793,0,0,0,5882.965-3850.775Zm2.375,1.862a3.56,3.56,0,0,1,1.466,1.095,3.235,3.235,0,0,1-.75,4.6,3.242,3.242,0,0,1-4.9-1.7,3.6,3.6,0,0,1,.144-2.3A3.26,3.26,0,0,1,5885.341-3848.913Z" transform="translate(-3451.243 -1960.388)" fill="#fff"/>
      <path id="Path_1449" data-name="Path 1449" d="M5910.21-3714.618a3.051,3.051,0,0,0-1.508,1.407l-.2.447v37.653l.2.446a2.86,2.86,0,0,0,1.584,1.415,2.612,2.612,0,0,0,3.125-1.339l.228-.438v-37.822l-.228-.438a2.8,2.8,0,0,0-1.23-1.213A3.2,3.2,0,0,0,5910.21-3714.618Z" transform="translate(-3478.083 -2085.097)" fill="#fff"/>
      <path id="Path_1450" data-name="Path 1450" d="M3155.808-3712.472a20.78,20.78,0,0,0-17.352,11.751,20.365,20.365,0,0,0-1.853,5.981,28.222,28.222,0,0,0-.008,6.023,20.891,20.891,0,0,0,8.188,13.705,20.734,20.734,0,0,0,13.739,4.068,20.481,20.481,0,0,0,13.166-5.854,20.641,20.641,0,0,0,6.175-12.256c.059-.463.109-1.575.109-2.653a17.393,17.393,0,0,0-.4-4.254,20.937,20.937,0,0,0-13.9-15.533A21.877,21.877,0,0,0,3155.808-3712.472Zm4.414,5.433a15.5,15.5,0,0,1,8.238,4.523,15.306,15.306,0,0,1,4.355,10.807,15.305,15.305,0,0,1-4.355,10.807,15.57,15.57,0,0,1-8.28,4.54,10.811,10.811,0,0,1-2.889.228,11.853,11.853,0,0,1-4.026-.463,15.169,15.169,0,0,1-7.387-4.389,15.285,15.285,0,0,1-3.706-6.469,13.82,13.82,0,0,1-.581-4.254,13.82,13.82,0,0,1,.581-4.254,15.217,15.217,0,0,1,3.749-6.511,15.747,15.747,0,0,1,9.434-4.776,21.816,21.816,0,0,1,2.19-.042A11.551,11.551,0,0,1,3160.222-3707.039Z" transform="translate(-939.525 -2087.116)" fill="#fff"/>
      <path id="Path_1451" data-name="Path 1451" d="M3379.789-3477.956c-.455.3-.573.6-.649,1.676a8.144,8.144,0,0,1-.472,2.5,9.919,9.919,0,0,1-2.561,4.052,9.289,9.289,0,0,1-2.628,1.8,9.887,9.887,0,0,1-3.6.935c-1.179.1-1.466.219-1.727.691a1.532,1.532,0,0,0,.135,1.457c.4.43.607.48,1.719.43a14,14,0,0,0,1.7-.186,12.511,12.511,0,0,0,10.024-11.624c.034-.918.025-1.036-.135-1.289A1.4,1.4,0,0,0,3379.789-3477.956Z" transform="translate(-1151.612 -2301.762)" fill="#fff"/>
      <path id="Path_1452" data-name="Path 1452" d="M4947-3712.376a20.594,20.594,0,0,0-13.309,6.065,20.6,20.6,0,0,0-5.947,12.045,22.6,22.6,0,0,0,.354,7.312,20.741,20.741,0,0,0,5.593,10.041,20.766,20.766,0,0,0,12.34,5.989c.463.051,1.525.1,2.358.1a19.456,19.456,0,0,0,6.57-1.045,20.932,20.932,0,0,0,8.188-5.1l.943-.943.025,2.62c.025,2.544.034,2.645.219,3.016a2.527,2.527,0,0,0,2.333,1.449,2.32,2.32,0,0,0,1.887-.834c.733-.8.682-.017.682-10.639,0-5.61-.034-9.889-.092-10.614a20.222,20.222,0,0,0-2.1-7.884,20.815,20.815,0,0,0-15.962-11.448A24.085,24.085,0,0,0,4947-3712.376Zm3.369,5.256a15.688,15.688,0,0,1,10.993,6.832,15.543,15.543,0,0,1,0,17.352,15.579,15.579,0,0,1-19.922,5.307,15.454,15.454,0,0,1-6.022-5.307,15.587,15.587,0,0,1,6.022-22.659A15.731,15.731,0,0,1,4950.374-3707.12Z" transform="translate(-2579.807 -2087.213)" fill="#fff"/>
      <path id="Path_1453" data-name="Path 1453" d="M5168.846-3477.9c-.514.312-.556.43-.682,1.643-.059.623-.168,1.373-.236,1.668a10.007,10.007,0,0,1-4.195,6.023,9.771,9.771,0,0,1-4.818,1.634,3.362,3.362,0,0,0-1.314.236,1.318,1.318,0,0,0,.017,2.207c.253.16.371.168,1.331.135a11.855,11.855,0,0,0,8.137-3.63,11.8,11.8,0,0,0,3.622-8.053c.042-1.053.034-1.162-.126-1.415A1.321,1.321,0,0,0,5168.846-3477.9Z" transform="translate(-2789.897 -2301.823)" fill="#fff"/>
      <path id="Path_1454" data-name="Path 1454" d="M4593.759-3477.956c-.455.3-.573.6-.648,1.676a9.865,9.865,0,0,1-1.937,5.324,10.074,10.074,0,0,1-3.707,3.032,10.3,10.3,0,0,1-3.6.935c-1.163.1-1.458.21-1.71.648a1.532,1.532,0,0,0-.152.716.936.936,0,0,0,.219.733c.4.48.623.539,1.8.48a12.058,12.058,0,0,0,8.044-3.639,12.1,12.1,0,0,0,3.631-8.171c.042-.918.034-1.036-.126-1.289A1.4,1.4,0,0,0,4593.759-3477.956Z" transform="translate(-2263.321 -2301.762)" fill="#fff"/>
      <path id="Path_1455" data-name="Path 1455" d="M3339.013-2866.642a5.2,5.2,0,0,0-3.723,3.294,6.941,6.941,0,0,0-.16,2.746,5.284,5.284,0,0,0,3.681,3.816,6.661,6.661,0,0,0,2.519,0,5.075,5.075,0,0,0,2.594-1.626l.278-.337.463.489a5.424,5.424,0,0,0,2.039,1.348,6.336,6.336,0,0,0,2.872.135,5.171,5.171,0,0,0,3.715-3.673,6.354,6.354,0,0,0-.126-2.923,5.109,5.109,0,0,0-5.121-3.361,4.822,4.822,0,0,0-3.235,1.491l-.573.564-.564-.564a4.777,4.777,0,0,0-3.336-1.482A4.943,4.943,0,0,0,3339.013-2866.642Zm2.46,2.047a3.226,3.226,0,0,1-.253,5.922,3.52,3.52,0,0,1-2.333-.008,3.713,3.713,0,0,1-1.811-1.811,3.34,3.34,0,0,1,.025-2.426,3.3,3.3,0,0,1,1.937-1.836,2.853,2.853,0,0,1,1.163-.135A2.473,2.473,0,0,1,3341.473-2864.595Zm7.927-.16a3.155,3.155,0,0,1,2.19,3.083,2.73,2.73,0,0,1-.943,2.24,2.731,2.731,0,0,1-2.241.944,3.17,3.17,0,0,1-3.226-3.437A3.223,3.223,0,0,1,3349.4-2864.755Z" transform="translate(-1121.416 -2861.642)" fill="#fff"/>
      <path id="Path_1456" data-name="Path 1456" d="M5009.094-2866.622a5.222,5.222,0,0,0-3.706,3.268,6.329,6.329,0,0,0-.135,2.872,5.15,5.15,0,0,0,3.723,3.723,6.416,6.416,0,0,0,2.889-.135,5.11,5.11,0,0,0,2.679-7.328,6.1,6.1,0,0,0-1.828-1.828A5.376,5.376,0,0,0,5009.094-2866.622Zm2.468,2.047a3.538,3.538,0,0,1,1.558,1.6,2.356,2.356,0,0,1,.228,1.323,2.325,2.325,0,0,1-.244,1.348,3.326,3.326,0,0,1-3.479,1.819,3.485,3.485,0,0,1-2.477-2,3.392,3.392,0,0,1,.48-3.176A3.252,3.252,0,0,1,5011.562-2864.575Z" transform="translate(-2650.824 -2861.662)" fill="#fff"/>
      <path id="Path_1457" data-name="Path 1457" d="M5684.238-2866.548a5.191,5.191,0,0,0-3.917,3.445,5.848,5.848,0,0,0,.008,3.117,5.56,5.56,0,0,0,1.533,2.283,5.145,5.145,0,0,0,2.9,1.179c.16,0,.295.033.295.076a9.981,9.981,0,0,1-2.257,1.44,15.63,15.63,0,0,1-3.058,1.095c-.826.194-.994.286-1.137.632a.9.9,0,0,0,.194,1c.32.329.564.329,1.7.042a14.579,14.579,0,0,0,7.008-3.925,12.1,12.1,0,0,0,2.452-3.807,6.1,6.1,0,0,0,.118-2.738,5.247,5.247,0,0,0-3.412-3.681A6.585,6.585,0,0,0,5684.238-2866.548Zm2.249,2.081a3.119,3.119,0,0,1,1.819,2.3,3.231,3.231,0,0,1-3.656,3.8,3.318,3.318,0,0,1-2.442-1.845,2.434,2.434,0,0,1-.228-1.365,2.265,2.265,0,0,1,.235-1.348,3.853,3.853,0,0,1,1.365-1.449,2.849,2.849,0,0,1,1.685-.379A2.562,2.562,0,0,1,5686.487-2864.468Z" transform="translate(-3267.484 -2861.778)" fill="#fff"/>
      <path id="Path_1458" data-name="Path 1458" d="M2363.516-2842.649a2.83,2.83,0,0,0-1.735,1.44,1.845,1.845,0,0,0-.194,1.095,2,2,0,0,0,.219,1.146,3.009,3.009,0,0,0,1.323,1.247l.387.177h71.768l.472-.219a2.4,2.4,0,0,0,1.491-2.232,1.892,1.892,0,0,0-.168-1.146,2.491,2.491,0,0,0-1.23-1.306l-.48-.236-35.8-.017C2379.883-2842.7,2363.659-2842.683,2363.516-2842.649Z" transform="translate(-229.942 -2883.664)" fill="#fff"/>
      <path id="Path_1459" data-name="Path 1459" d="M2162.958-2590.619a21.061,21.061,0,0,0-6.865,1.651,20.43,20.43,0,0,0-6.309,4.237,19.859,19.859,0,0,0-4.22,5.812,18.435,18.435,0,0,0-1.516,4.1,16.463,16.463,0,0,0-.548,5.121,15.853,15.853,0,0,0,.194,3.395,20.886,20.886,0,0,0,9.03,13.916,20.7,20.7,0,0,0,8.095,3.243,26.959,26.959,0,0,0,6.057.135,20.321,20.321,0,0,0,4.01-.9,20.962,20.962,0,0,0,13.3-13.343,21.026,21.026,0,0,0,1.053-6.444,15.838,15.838,0,0,1,.564-4.212,15.827,15.827,0,0,1,10.268-10.774,12.622,12.622,0,0,1,4.877-.724,12.085,12.085,0,0,1,2.906.194,15.811,15.811,0,0,1,12.037,10.6,15.077,15.077,0,0,1,.775,4.751,21.289,21.289,0,0,0,1.39,7.556,21.366,21.366,0,0,0,8.432,10.277,22.547,22.547,0,0,0,6.511,2.67,18.344,18.344,0,0,0,5.054.446,17.777,17.777,0,0,0,4.936-.64,21.075,21.075,0,0,0,12.02-8.676c.834-1.255.817-1.238.859-1.146.025.042.295.48.6.969a20.99,20.99,0,0,0,15.154,9.687c2.822.337,8.373.371,74.084.505l51.846.1,1.095-.219a39.028,39.028,0,0,0,15.247-6.991,42.7,42.7,0,0,0,8.011-8.011,42.875,42.875,0,0,0,2.687-3.959c.455-.741,1.019-1.651,1.255-2.022l.43-.674.059,1.727a20.339,20.339,0,0,0,4.178,11.9,25.888,25.888,0,0,0,3.428,3.572,22.272,22.272,0,0,0,8.381,4.144,17.009,17.009,0,0,0,4.844.472,15.582,15.582,0,0,0,3.353-.194,20.8,20.8,0,0,0,8.087-3.218,20.252,20.252,0,0,0,7.185-8.213,20.429,20.429,0,0,0,1.988-6.57,30.184,30.184,0,0,0-.042-5.374,21.047,21.047,0,0,0-3.959-9.62,27.777,27.777,0,0,0-4.111-4.153,20.918,20.918,0,0,0-9.763-4.01,35.027,35.027,0,0,0-4.843-.261,20.435,20.435,0,0,0-8.23,2.417c-5.93,3.024-11.465,8.735-16.451,17a36.688,36.688,0,0,1-12.02,12.551,24.4,24.4,0,0,1-3.807,2c.042-.059.295-.4.556-.741a22.8,22.8,0,0,0,2.881-5.332,21.5,21.5,0,0,0,.767-11.523,21.2,21.2,0,0,0-4.018-8.474,25.57,25.57,0,0,0-3.226-3.251,21.2,21.2,0,0,0-10.757-4.515,31.84,31.84,0,0,0-4.658-.008,20.935,20.935,0,0,0-16.081,10.95,20.3,20.3,0,0,0-2.384,10.4,19.672,19.672,0,0,0,2.131,8.542,20.442,20.442,0,0,0,3.951,5.5l.91.91h-7.741c-25.7.009-91.588-.185-91.883-.261a11.837,11.837,0,0,0-1.609-.16,15.558,15.558,0,0,1-10.285-4.582,15.645,15.645,0,0,1-4.406-8.558c-.177-1.028-.177-1.322-.2-10.571l-.017-9.519-.185-.4a2.9,2.9,0,0,0-1.314-1.339,2.824,2.824,0,0,0-2.207.025,2.86,2.86,0,0,0-1.238,1.289l-.194.421-.051,9.6c-.051,10.386-.034,9.948-.514,11.667a15.737,15.737,0,0,1-8.221,10.058,15.7,15.7,0,0,1-20.477-6.057,14.385,14.385,0,0,1-1.365-2.982,14.952,14.952,0,0,1-.834-4.936c-.051-1.061-.126-2.258-.168-2.653a21,21,0,0,0-13.949-17.209,19.028,19.028,0,0,0-6.688-1.1,19.382,19.382,0,0,0-6.6.994,21,21,0,0,0-13.031,12.365,21.838,21.838,0,0,0-1.432,7.817,14.955,14.955,0,0,1-.767,4.582,15.78,15.78,0,0,1-14.96,10.833,15.8,15.8,0,0,1-15.339-12.467,15.741,15.741,0,0,1,8.542-17.4,15.647,15.647,0,0,1,6.115-1.55,4.221,4.221,0,0,0,1.769-.278,2.175,2.175,0,0,0,1.238-1.171,1.952,1.952,0,0,0,.261-1.162,2.014,2.014,0,0,0-.253-1.162,2.443,2.443,0,0,0-2.485-1.415C2163.674-2590.644,2163.144-2590.636,2162.958-2590.619Zm227.1,6.1a15.819,15.819,0,0,1,10.42,5.635,15.575,15.575,0,0,1,2.788,14.775,19.058,19.058,0,0,1-2.106,4.178,19.2,19.2,0,0,1-2.855,3.041,15.56,15.56,0,0,1-15.356,2.552,15,15,0,0,1-5.433-3.471,15.488,15.488,0,0,1-3.176-17.917,15.693,15.693,0,0,1,12.054-8.752A18.36,18.36,0,0,1,2390.055-2584.521Zm60.152.286a15.712,15.712,0,0,1,12.425,13.486,21.188,21.188,0,0,1-.168,4.793,15.783,15.783,0,0,1-10.293,11.826,15.56,15.56,0,0,1-15.9-3.555,15.646,15.646,0,0,1-4.734-9.729A15.687,15.687,0,0,1,2443-2583.981a12.576,12.576,0,0,1,4.422-.5A11.884,11.884,0,0,1,2450.207-2584.234Z" transform="translate(-30.227 -3114.492)" fill="#fff"/>
      <path id="Path_1460" data-name="Path 1460" d="M5047.885-2347.818c-.531.362-.606.539-.682,1.685a9.525,9.525,0,0,1-1.634,4.869,9.912,9.912,0,0,1-7.75,4.431c-.9.059-1.146.143-1.466.489a1.014,1.014,0,0,0-.244.7,1.17,1.17,0,0,0,.556,1.221c.27.168.362.168,1.474.126a11.754,11.754,0,0,0,8.028-3.631,11.862,11.862,0,0,0,3.622-8.095c.05-1.053.042-1.1-.152-1.39A1.308,1.308,0,0,0,5047.885-2347.818Z" transform="translate(-2679.17 -3336.689)" fill="#fff"/>
      <path id="Path_1461" data-name="Path 1461" d="M5736.885-2347.818c-.531.362-.606.539-.683,1.685a9.524,9.524,0,0,1-1.634,4.869,9.912,9.912,0,0,1-7.75,4.431c-.9.059-1.146.143-1.465.489a1.012,1.012,0,0,0-.245.7,1.171,1.171,0,0,0,.556,1.221c.261.16.371.168,1.432.126a10.008,10.008,0,0,0,3.268-.606,11.8,11.8,0,0,0,4.8-3.024,11.867,11.867,0,0,0,3.622-8.095c.05-1.053.042-1.1-.152-1.39A1.308,1.308,0,0,0,5736.885-2347.818Z" transform="translate(-3310.132 -3336.689)" fill="#fff"/>
      <path id="Path_1462" data-name="Path 1462" d="M2372.014-2347.789a1.392,1.392,0,0,0-.674,1.365,10.428,10.428,0,0,1-.96,3.993,10.333,10.333,0,0,1-4.464,4.582,10.021,10.021,0,0,1-4.069,1.07c-.985.067-1.314.228-1.55.741a1.111,1.111,0,0,0,.008,1.12c.253.564.556.7,1.558.7a12.263,12.263,0,0,0,8.719-3.934,12.4,12.4,0,0,0,3.285-7.2c.118-1.171.11-1.483-.093-1.9A1.29,1.29,0,0,0,2372.014-2347.789Z" transform="translate(-228.627 -3336.744)" fill="#fff"/>
      <path id="Path_1463" data-name="Path 1463" d="M3252.665-2347.784c-.539.362-.615.539-.691,1.634a12.678,12.678,0,0,1-.16,1.424,11.344,11.344,0,0,1-1.542,3.622,13.775,13.775,0,0,1-2.165,2.274,10.184,10.184,0,0,1-5.517,2.03c-.927.059-1.179.152-1.508.539a1.421,1.421,0,0,0-.051,1.474c.312.505.581.581,1.862.522a11.772,11.772,0,0,0,6.174-2.055,15.043,15.043,0,0,0,3.369-3.327,12.539,12.539,0,0,0,2.131-6.343c.042-.792.025-.985-.1-1.247A1.288,1.288,0,0,0,3252.665-2347.784Z" transform="translate(-1035.143 -3336.723)" fill="#fff"/>
    </g>
  </g>
</svg>
