<svg xmlns="http://www.w3.org/2000/svg" width="79.958" height="80.064" viewBox="0 0 79.958 80.064">
  <g id="minus_1_" data-name="minus (1)" transform="translate(-0.301 0)">
    <path id="Path_531" data-name="Path 531" d="M71.533,73.119c-12.251,10-50.5,10-62.506,0-12.251-10-11-52.755,0-64.006s51.5-11.251,62.506,0S83.784,63.119,71.533,73.119Z" transform="translate(0 -0.556)" fill="#db004a"/>
    <g id="Group_214" data-name="Group 214" transform="translate(0.338 0)" opacity="0.2">
      <path id="Path_532" data-name="Path 532" d="M40.7,55.062c-11,8.751-23.252,13.251-34.753,13.5C-2.552,54.062-.8,18.808,9.2,8.557c9-9.251,37.253-11,53.505-5.251C66.7,19.808,58.453,40.81,40.7,55.062Z" transform="translate(-0.509 0)" fill="#fff"/>
    </g>
    <path id="Path_533" data-name="Path 533" d="M140.109,206.776a4.482,4.482,0,0,1-4.5,4.5H97.1a4.5,4.5,0,0,1,0-9h38.754A4.436,4.436,0,0,1,140.109,206.776Z" transform="translate(-76.076 -166.716)" fill="#fff"/>
  </g>
</svg>
