<svg xmlns="http://www.w3.org/2000/svg" width="60.671" height="60.759" viewBox="0 0 60.671 60.759">
  <g id="phone-call_6_" data-name="phone-call (6)" transform="translate(-0.344 0)">
    <g id="Group_209" data-name="Group 209" transform="translate(0.344 0)">
      <path id="Path_526" data-name="Path 526" d="M48.319,61.53a5.976,5.976,0,0,0-4.334-1.988A6.18,6.18,0,0,0,39.6,61.517l-4.052,4.039c-.333-.18-.667-.346-.987-.513-.462-.231-.9-.449-1.27-.68a44.043,44.043,0,0,1-10.554-9.618,25.983,25.983,0,0,1-3.462-5.463c1.052-.962,2.026-1.962,2.975-2.924.359-.359.718-.731,1.077-1.09a5.883,5.883,0,0,0,0-8.874l-3.5-3.5c-.4-.4-.808-.808-1.193-1.218-.769-.8-1.577-1.616-2.411-2.385a6.07,6.07,0,0,0-4.3-1.885,6.281,6.281,0,0,0-4.36,1.885l-.026.026-4.36,4.4A9.382,9.382,0,0,0,.4,39.678a22.48,22.48,0,0,0,1.641,9.515,55.215,55.215,0,0,0,9.81,16.363A60.347,60.347,0,0,0,31.943,81.291a31.308,31.308,0,0,0,11.285,3.334c.269.013.551.026.808.026a9.663,9.663,0,0,0,7.4-3.18c.013-.026.038-.038.051-.064a29.152,29.152,0,0,1,2.244-2.321c.551-.526,1.116-1.077,1.667-1.654a6.4,6.4,0,0,0,1.936-4.437,6.163,6.163,0,0,0-1.975-4.4Zm4.591,13.5c-.013,0-.013.013,0,0-.5.539-1.013,1.026-1.564,1.564a33.723,33.723,0,0,0-2.475,2.565A6.182,6.182,0,0,1,44.049,81.2c-.192,0-.4,0-.59-.013a27.813,27.813,0,0,1-10-3A56.964,56.964,0,0,1,14.529,63.363,52.061,52.061,0,0,1,5.3,47.988,18.31,18.31,0,0,1,3.86,39.96a5.887,5.887,0,0,1,1.77-3.809L10,31.779a2.915,2.915,0,0,1,1.949-.91,2.743,2.743,0,0,1,1.872.9l.038.038c.782.731,1.526,1.488,2.308,2.3.4.41.808.821,1.218,1.244l3.5,3.5c1.359,1.359,1.359,2.616,0,3.975-.372.372-.731.744-1.1,1.1-1.077,1.1-2.1,2.129-3.219,3.129-.026.026-.051.038-.064.064a2.616,2.616,0,0,0-.667,2.911l.038.115A28.106,28.106,0,0,0,20.017,56.9l.013.013A47.067,47.067,0,0,0,31.418,67.275a17.509,17.509,0,0,0,1.577.859c.462.231.9.449,1.27.68.051.026.1.064.154.09a2.78,2.78,0,0,0,1.27.321,2.742,2.742,0,0,0,1.949-.885l4.386-4.386a2.9,2.9,0,0,1,1.936-.962,2.612,2.612,0,0,1,1.847.936l.026.026L52.9,71.019A2.536,2.536,0,0,1,52.91,75.033Z" transform="translate(-0.344 -23.892)" fill="#fff"/>
      <path id="Path_527" data-name="Path 527" d="M246.369,89.36A16.5,16.5,0,0,1,259.808,102.8a1.721,1.721,0,0,0,1.706,1.436,2.289,2.289,0,0,0,.295-.026,1.733,1.733,0,0,0,1.423-2,19.956,19.956,0,0,0-16.26-16.26,1.74,1.74,0,0,0-2,1.411A1.712,1.712,0,0,0,246.369,89.36Z" transform="translate(-213.577 -74.907)" fill="#fff"/>
      <path id="Path_528" data-name="Path 528" d="M277.562,26.8A32.86,32.86,0,0,0,250.786.027a1.729,1.729,0,1,0-.564,3.411,29.351,29.351,0,0,1,23.929,23.929,1.721,1.721,0,0,0,1.706,1.436,2.29,2.29,0,0,0,.295-.026A1.7,1.7,0,0,0,277.562,26.8Z" transform="translate(-216.918 0)" fill="#fff"/>
    </g>
  </g>
</svg>
