<svg xmlns="http://www.w3.org/2000/svg" width="51.205" height="63.291" viewBox="0 0 51.205 63.291">
  <g id="place" transform="translate(-48.886)">
    <g id="Group_252" data-name="Group 252" transform="translate(48.886)">
      <g id="Group_251" data-name="Group 251">
        <path id="Path_1404" data-name="Path 1404" d="M95.5,11a25.555,25.555,0,0,0-42.016,0,25.559,25.559,0,0,0-2.976,23.548,20.129,20.129,0,0,0,3.71,6.125L72.8,62.512a2.211,2.211,0,0,0,3.37,0L94.758,40.684a20.148,20.148,0,0,0,3.709-6.117A25.563,25.563,0,0,0,95.5,11ZM94.323,33.017A15.786,15.786,0,0,1,91.4,37.8a.08.08,0,0,0-.01.012l-16.9,19.855L57.575,37.8A15.8,15.8,0,0,1,54.65,33a21.141,21.141,0,0,1,2.471-19.481,21.129,21.129,0,0,1,34.734,0A21.145,21.145,0,0,1,94.323,33.017Z" transform="translate(-48.886)" fill="#fff"/>
      </g>
    </g>
    <g id="Group_254" data-name="Group 254" transform="translate(62.096 13.13)">
      <g id="Group_253" data-name="Group 253">
        <path id="Path_1405" data-name="Path 1405" d="M168.147,106.219a12.393,12.393,0,1,0,12.393,12.393A12.407,12.407,0,0,0,168.147,106.219Zm0,20.359a7.967,7.967,0,1,1,7.967-7.967A7.976,7.976,0,0,1,168.147,126.578Z" transform="translate(-155.754 -106.219)" fill="#fff"/>
      </g>
    </g>
  </g>
</svg>
