<svg id="Component_1_1" data-name="Component 1 – 1" xmlns="http://www.w3.org/2000/svg" width="71" height="71" viewBox="0 0 71 71">
  <rect id="Rectangle_653" data-name="Rectangle 653" width="71" height="71" rx="35.5" fill="#ec407a"/>
  <path id="add_2_" data-name="add (2)" d="M25.067,11.3H16.711a.492.492,0,0,1-.492-.492V2.458a2.458,2.458,0,0,0-4.915,0v8.356a.492.492,0,0,1-.492.492H2.458a2.458,2.458,0,0,0,0,4.915h8.356a.492.492,0,0,1,.492.492v8.356a2.458,2.458,0,1,0,4.915,0V16.711a.492.492,0,0,1,.492-.492h8.356a2.458,2.458,0,1,0,0-4.915Zm0,0" transform="translate(21.738 22)" fill="#fff"/>
</svg>
