<svg xmlns="http://www.w3.org/2000/svg" width="79.958" height="80.064" viewBox="0 0 79.958 80.064">
  <g id="plus_3_" data-name="plus (3)" transform="translate(-0.301 0)">
    <path id="Path_534" data-name="Path 534" d="M71.533,73.119c-12.251,10-50.5,10-62.506,0-12.251-10-11-52.755,0-64.006s51.5-11.251,62.506,0S83.784,63.119,71.533,73.119Z" transform="translate(0 -0.556)" fill="#d40061"/>
    <g id="Group_215" data-name="Group 215" transform="translate(0.338 0)" opacity="0.2">
      <path id="Path_535" data-name="Path 535" d="M40.7,55.062c-11,8.751-23.252,13.251-34.753,13.5C-2.552,54.062-.8,18.808,9.2,8.557c9-9.251,37.253-11,53.505-5.251C66.7,19.808,58.453,40.81,40.7,55.062Z" transform="translate(-0.509 0)" fill="#fff"/>
    </g>
    <path id="Path_536" data-name="Path 536" d="M137.765,115.345a4.482,4.482,0,0,1-4.5,4.5h-15v15a4.5,4.5,0,0,1-9,0v-15h-15a4.5,4.5,0,0,1,0-9h15v-15a4.5,4.5,0,1,1,9,0v15h15A4.482,4.482,0,0,1,137.765,115.345Z" transform="translate(-73.732 -75.285)" fill="#fff"/>
  </g>
</svg>
