<svg xmlns="http://www.w3.org/2000/svg" width="48.4" height="48.4" viewBox="0 0 48.4 48.4">
  <g id="search_1_" data-name="search (1)" transform="translate(0.2 0.2)">
    <g id="Group_3" data-name="Group 3" transform="translate(7.217 10.404)">
      <g id="Group_2" data-name="Group 2">
        <path id="Path_8" data-name="Path 8" d="M83.014,111.5a1.773,1.773,0,0,0-2.508,0,12.12,12.12,0,0,0-3.466,9.824,1.774,1.774,0,0,0,1.763,1.6c.059,0,.119,0,.178-.009a1.774,1.774,0,0,0,1.588-1.941A8.586,8.586,0,0,1,83.014,114,1.772,1.772,0,0,0,83.014,111.5Z" transform="translate(-76.978 -110.975)" stroke="#000" stroke-width="0.4"/>
      </g>
    </g>
    <g id="Group_5" data-name="Group 5">
      <g id="Group_4" data-name="Group 4">
        <path id="Path_9" data-name="Path 9" d="M20.276,0A20.276,20.276,0,1,0,40.552,20.276,20.3,20.3,0,0,0,20.276,0Zm0,37A16.729,16.729,0,1,1,37,20.276,16.748,16.748,0,0,1,20.276,37Z" stroke="#000" stroke-width="0.4"/>
      </g>
    </g>
    <g id="Group_7" data-name="Group 7" transform="translate(31.566 31.566)">
      <g id="Group_6" data-name="Group 6">
        <path id="Path_10" data-name="Path 10" d="M352.622,350.116l-12.887-12.887a1.773,1.773,0,1,0-2.508,2.508l12.887,12.887a1.773,1.773,0,0,0,2.508-2.508Z" transform="translate(-336.708 -336.709)" stroke="#000" stroke-width="0.4"/>
      </g>
    </g>
  </g>
</svg>
