<svg xmlns="http://www.w3.org/2000/svg" width="38.6" height="42.073" viewBox="0 0 38.6 42.073">
  <g id="share_2_" data-name="share (2)" transform="translate(0.2 0.2)">
    <path id="Path_44" data-name="Path 44" d="M315.843,13.023a6.511,6.511,0,1,1,6.511-6.511A6.519,6.519,0,0,1,315.843,13.023Zm0-10.418a3.907,3.907,0,1,0,3.907,3.907A3.912,3.912,0,0,0,315.843,2.6Zm0,0" transform="translate(-284.155)" stroke="#000" stroke-width="0.4"/>
    <path id="Path_45" data-name="Path 45" d="M315.843,365.023a6.511,6.511,0,1,1,6.511-6.511A6.52,6.52,0,0,1,315.843,365.023Zm0-10.418a3.907,3.907,0,1,0,3.907,3.907A3.912,3.912,0,0,0,315.843,354.6Zm0,0" transform="translate(-284.155 -323.35)" stroke="#000" stroke-width="0.4"/>
    <path id="Path_46" data-name="Path 46" d="M6.511,189.023a6.511,6.511,0,1,1,6.511-6.511A6.519,6.519,0,0,1,6.511,189.023Zm0-10.418a3.907,3.907,0,1,0,3.907,3.907A3.912,3.912,0,0,0,6.511,178.6Zm0,0" transform="translate(0 -161.675)" stroke="#000" stroke-width="0.4"/>
    <path id="Path_47" data-name="Path 47" d="M120.993,107.35a1.3,1.3,0,0,1-.646-2.433l16.112-9.186a1.3,1.3,0,0,1,1.288,2.263l-16.112,9.185a1.3,1.3,0,0,1-.642.17Zm0,0" transform="translate(-109.947 -87.781)" stroke="#000" stroke-width="0.4"/>
    <path id="Path_48" data-name="Path 48" d="M137.123,283.34a1.291,1.291,0,0,1-.643-.172l-16.112-9.186a1.3,1.3,0,0,1,1.289-2.263l16.112,9.185a1.3,1.3,0,0,1-.646,2.434Zm0,0" transform="translate(-109.967 -249.446)" stroke="#000" stroke-width="0.4"/>
  </g>
</svg>
