<svg xmlns="http://www.w3.org/2000/svg" width="34.543" height="40.67" viewBox="0 0 34.543 40.67">
  <g id="shop_1_" data-name="shop (1)" transform="translate(-15.108 0.25)">
    <g id="Group_303" data-name="Group 303" transform="translate(27.573)">
      <g id="Group_302" data-name="Group 302" transform="translate(0)">
        <path id="Path_1406" data-name="Path 1406" d="M87.129,4.964a5.788,5.788,0,0,0-10.4-2.587.681.681,0,1,0,1.1.8,4.426,4.426,0,0,1,7.957,1.976.681.681,0,0,0,.673.585.729.729,0,0,0,.1-.007A.681.681,0,0,0,87.129,4.964Z" transform="translate(-76.593)" fill="#616161" stroke="#707070" stroke-width="0.5"/>
      </g>
    </g>
    <g id="Group_305" data-name="Group 305" transform="translate(16.72 8.851)">
      <g id="Group_304" data-name="Group 304">
        <path id="Path_1407" data-name="Path 1407" d="M53.407,48.107l-2.043-3.4a.68.68,0,0,0-.584-.331H48.823a.681.681,0,0,0,0,1.362H50.4l1.226,2.043H24.068l1.226-2.043h.721a.681.681,0,0,0,0-1.362H24.908a.68.68,0,0,0-.584.331l-2.043,3.4a.681.681,0,0,0,.584,1.031H52.823a.681.681,0,0,0,.584-1.031Z" transform="translate(-22.185 -44.372)" fill="#616161" stroke="#707070" stroke-width="0.5"/>
      </g>
    </g>
    <g id="Group_307" data-name="Group 307" transform="translate(33.307 3.815)">
      <g id="Group_306" data-name="Group 306">
        <path id="Path_1408" data-name="Path 1408" d="M116.584,21.619a.68.68,0,0,0-.423-.3l-9.281-2.171a.68.68,0,0,0-.818.508l-.7,2.992a.681.681,0,0,0,1.326.31l.545-2.329,7.955,1.861-1.25,5.345a.68.68,0,0,0,.508.818.689.689,0,0,0,.156.018.68.68,0,0,0,.662-.526l1.405-6.008A.678.678,0,0,0,116.584,21.619Z" transform="translate(-105.343 -19.126)" fill="#616161" stroke="#707070" stroke-width="0.5"/>
      </g>
    </g>
    <g id="Group_309" data-name="Group 309" transform="translate(19.375 2.069)">
      <g id="Group_308" data-name="Group 308" transform="translate(0)">
        <path id="Path_1409" data-name="Path 1409" d="M48.859,16.222l-.62-5.247a.681.681,0,0,0-.756-.6L36.095,11.724a.681.681,0,0,0-.6.756l1.034,8.751a.681.681,0,0,0,.675.6.744.744,0,0,0,.081,0,.681.681,0,0,0,.6-.756L36.931,13,46.966,11.81l.54,4.571a.681.681,0,0,0,1.352-.159Z" transform="translate(-35.494 -10.374)" fill="#616161" stroke="#707070" stroke-width="0.5"/>
      </g>
    </g>
    <g id="Group_311" data-name="Group 311" transform="translate(24.462 6.536)">
      <g id="Group_310" data-name="Group 310">
        <path id="Path_1410" data-name="Path 1410" d="M74.659,38.91l-1.351-5.62a.68.68,0,0,0-.821-.5L61.519,35.426a.681.681,0,0,0-.5.821l.675,2.809a.681.681,0,1,0,1.324-.318L62.5,36.591l9.644-2.319,1.192,4.958a.681.681,0,0,0,1.324-.319Z" transform="translate(-60.997 -32.769)" fill="#616161" stroke="#707070" stroke-width="0.5"/>
      </g>
    </g>
    <g id="Group_313" data-name="Group 313" transform="translate(15.359 12.255)">
      <g id="Group_312" data-name="Group 312" transform="translate(0)">
        <path id="Path_1411" data-name="Path 1411" d="M48.039,62.087a.681.681,0,0,0-.68-.646H17.4a.681.681,0,0,0-.68.646L15.359,88.64a.681.681,0,0,0,.68.716H48.72a.681.681,0,0,0,.681-.716ZM16.756,87.994,18.048,62.8H46.711L48,87.994Z" transform="translate(-15.359 -61.441)" fill="#616161" stroke="#707070" stroke-width="0.5"/>
      </g>
    </g>
    <g id="Group_315" data-name="Group 315" transform="translate(35.444 14.979)">
      <g id="Group_314" data-name="Group 314">
        <path id="Path_1412" data-name="Path 1412" d="M118.095,75.093a2.043,2.043,0,1,0,2.043,2.043A2.045,2.045,0,0,0,118.095,75.093Zm0,2.724a.681.681,0,1,1,.681-.681A.681.681,0,0,1,118.095,77.817Z" transform="translate(-116.052 -75.093)" fill="#616161" stroke="#707070" stroke-width="0.5"/>
      </g>
    </g>
    <g id="Group_317" data-name="Group 317" transform="translate(25.231 14.979)">
      <g id="Group_316" data-name="Group 316">
        <path id="Path_1413" data-name="Path 1413" d="M66.895,75.093a2.043,2.043,0,1,0,2.043,2.043A2.045,2.045,0,0,0,66.895,75.093Zm0,2.724a.681.681,0,1,1,.681-.681A.682.682,0,0,1,66.895,77.817Z" transform="translate(-64.852 -75.093)" fill="#616161" stroke="#707070" stroke-width="0.5"/>
      </g>
    </g>
    <g id="Group_319" data-name="Group 319" transform="translate(26.593 17.021)">
      <g id="Group_318" data-name="Group 318">
        <path id="Path_1414" data-name="Path 1414" d="M82.572,85.333H82.52a.681.681,0,0,0-.681.681.673.673,0,0,0,.052.262v3.482a4.426,4.426,0,0,1-8.851,0V86.014a.681.681,0,0,0-1.362,0v3.745a5.787,5.787,0,1,0,11.574,0V86.014A.681.681,0,0,0,82.572,85.333Z" transform="translate(-71.679 -85.333)" fill="#616161" stroke="#707070" stroke-width="0.5"/>
      </g>
    </g>
  </g>
</svg>
