<svg id="shopping-cart" xmlns="http://www.w3.org/2000/svg" width="48" height="48" viewBox="0 0 48 48">
  <g id="Group_1" data-name="Group 1">
    <path id="Path_4" data-name="Path 4" d="M47.58,10.911a1.875,1.875,0,0,0-1.455-.692H12.163l-.139-1.278,0-.041A10.259,10.259,0,0,0,1.875,0a1.875,1.875,0,0,0,0,3.75A6.5,6.5,0,0,1,8.3,9.368l2.229,20.475a5.633,5.633,0,0,0-3.308,5.125c0,.016,0,.031,0,.047s0,.031,0,.047a5.631,5.631,0,0,0,5.625,5.625h.763a5.531,5.531,0,1,0,10.474,0h8.088a5.532,5.532,0,1,0,5.237-3.75H12.844a1.877,1.877,0,0,1-1.875-1.875c0-.016,0-.031,0-.047s0-.031,0-.047a1.877,1.877,0,0,1,1.875-1.875H36.781a8.586,8.586,0,0,0,7.782-5.246,1.875,1.875,0,0,0-3.434-1.507,4.9,4.9,0,0,1-4.348,3H14.244L12.571,13.969H43.819l-.917,4.4a1.875,1.875,0,1,0,3.671.766l1.388-6.656A1.875,1.875,0,0,0,47.58,10.911ZM37.406,40.688a1.781,1.781,0,1,1-1.781,1.781A1.783,1.783,0,0,1,37.406,40.688Zm-18.563,0a1.781,1.781,0,1,1-1.781,1.781A1.783,1.783,0,0,1,18.844,40.688Z"/>
  </g>
</svg>
