<svg xmlns="http://www.w3.org/2000/svg" width="51.205" height="51.399" viewBox="0 0 51.205 51.399">
  <g id="telephone" transform="translate(-0.912)">
    <path id="Path_1400" data-name="Path 1400" d="M11.288,34.167A54.53,54.53,0,0,0,29.426,48.375a28.229,28.229,0,0,0,10.15,3c.245.011.479.021.724.021a8.4,8.4,0,0,0,6.518-2.8.232.232,0,0,0,.043-.053,27.442,27.442,0,0,1,2.056-2.13c.5-.479,1.012-.98,1.5-1.491a5.143,5.143,0,0,0-.021-7.658l-6.4-6.4a5.181,5.181,0,0,0-3.749-1.725,5.355,5.355,0,0,0-3.792,1.715l-3.813,3.813c-.351-.2-.714-.383-1.054-.554a13.17,13.17,0,0,1-1.172-.639A40.353,40.353,0,0,1,20.778,24.7a23.238,23.238,0,0,1-3.259-5.2c1-.905,1.938-1.853,2.844-2.78.32-.33.65-.66.98-.99A5.46,5.46,0,0,0,23.11,11.9a5.417,5.417,0,0,0-1.768-3.834L18.168,4.889c-.373-.373-.724-.735-1.086-1.108-.7-.724-1.438-1.47-2.162-2.141A5.31,5.31,0,0,0,11.171,0,5.467,5.467,0,0,0,7.379,1.651L3.4,5.634a8.184,8.184,0,0,0-2.439,5.24,19.711,19.711,0,0,0,1.48,8.52A49.569,49.569,0,0,0,11.288,34.167ZM3.556,11.1A5.634,5.634,0,0,1,5.249,7.477L9.211,3.515a2.868,2.868,0,0,1,1.96-.905,2.721,2.721,0,0,1,1.917.927c.714.66,1.385,1.353,2.109,2.087.362.373.735.746,1.108,1.129l3.174,3.174a2.892,2.892,0,0,1,1,1.992,2.892,2.892,0,0,1-1,1.992c-.33.33-.66.671-.99,1-.99,1-1.917,1.949-2.94,2.854l-.053.053a2.082,2.082,0,0,0-.533,2.364c.011.032.021.053.032.085a25.066,25.066,0,0,0,3.738,6.081A42.59,42.59,0,0,0,29,35.7a15.246,15.246,0,0,0,1.406.767,13.17,13.17,0,0,1,1.172.639c.043.021.075.043.117.064a2.226,2.226,0,0,0,1.033.266,2.259,2.259,0,0,0,1.587-.724L38.3,32.729a2.819,2.819,0,0,1,1.949-.948,2.675,2.675,0,0,1,1.885.948l6.422,6.412c1.278,1.278,1.267,2.663-.032,4.015-.447.479-.916.937-1.417,1.417a30.673,30.673,0,0,0-2.226,2.311,5.847,5.847,0,0,1-4.569,1.938c-.181,0-.373-.011-.554-.021a25.646,25.646,0,0,1-9.181-2.748A51.8,51.8,0,0,1,13.312,32.527,47.446,47.446,0,0,1,4.9,18.521,17.178,17.178,0,0,1,3.556,11.1Z" transform="translate(0)" fill="#fff"/>
  </g>
</svg>
