<svg id="user_4_" data-name="user (4)" xmlns="http://www.w3.org/2000/svg" width="57.205" height="57.205" viewBox="0 0 57.205 57.205">
  <path id="Path_1401" data-name="Path 1401" d="M28.6,57.205A28.6,28.6,0,1,1,50.473,47.038,28.9,28.9,0,0,1,47.1,50.421a28.611,28.611,0,0,1-18.5,6.784Zm0-53.63A25.029,25.029,0,0,0,9.464,44.732a25.32,25.32,0,0,0,2.955,2.963,25.03,25.03,0,0,0,32.365,0,25.319,25.319,0,0,0,2.956-2.964A25.029,25.029,0,0,0,28.6,3.575Z" transform="translate(0 0)" fill="#fff"/>
  <path id="Path_1402" data-name="Path 1402" d="M170.726,85.452a10.726,10.726,0,1,1,10.726-10.726A10.738,10.738,0,0,1,170.726,85.452Zm0-17.877a7.151,7.151,0,1,0,7.151,7.151A7.159,7.159,0,0,0,170.726,67.575Z" transform="translate(-142.123 -56.849)" fill="#fff"/>
  <path id="Path_1403" data-name="Path 1403" d="M117,249.819a1.789,1.789,0,0,1-1.735-2.223A16.1,16.1,0,0,0,99.9,227.576h-.471A16.1,16.1,0,0,0,84.059,247.6a1.788,1.788,0,0,1-3.468.87A19.67,19.67,0,0,1,99.386,224h.557a19.679,19.679,0,0,1,18.794,24.465A1.789,1.789,0,0,1,117,249.819Z" transform="translate(-71.062 -198.973)" fill="#fff"/>
</svg>
