<svg xmlns="http://www.w3.org/2000/svg" width="62" height="61.997" viewBox="0 0 62 61.997">
  <g id="XMLID_1441_" transform="translate(1 0.99)">
    <g id="XMLID_561_" transform="translate(0 0.011)">
      <path id="XMLID_592_" d="M56.484,32.352H55.313v-8.2a6.807,6.807,0,0,0-5.3-6.629L44.677,8.281A5.855,5.855,0,0,0,37.927,5.6L34.048,1.722a5.86,5.86,0,0,0-8.277,0L10.142,17.352H6.8a6.8,6.8,0,0,0-6.8,6.8V53.211a6.8,6.8,0,0,0,6.8,6.8H22.383a1.172,1.172,0,1,0,0-2.344H6.8a4.458,4.458,0,0,1-4.453-4.453V24.149A4.458,4.458,0,0,1,6.8,19.7H48.516a4.458,4.458,0,0,1,4.453,4.453v8.2H44.3a6.328,6.328,0,1,0,0,12.656h8.672v8.2a4.458,4.458,0,0,1-4.453,4.453H32.93a1.172,1.172,0,1,0,0,2.344H48.516a6.8,6.8,0,0,0,6.8-6.8v-8.2h1.172A3.52,3.52,0,0,0,60,41.492V35.867A3.52,3.52,0,0,0,56.484,32.352ZM40.517,7.818a3.486,3.486,0,0,1,2.131,1.635l4.56,7.9H21.948L37.854,8.168a3.486,3.486,0,0,1,2.663-.351ZM27.428,3.379a3.509,3.509,0,0,1,4.963,0l3.32,3.32L17.261,17.352h-3.8ZM57.656,41.492a1.173,1.173,0,0,1-1.172,1.172H44.3a3.984,3.984,0,1,1,0-7.969H56.484a1.173,1.173,0,0,1,1.172,1.172Z" transform="translate(0 -0.011)" fill="#d81b60" stroke="#ec407a" stroke-width="2"/>
      <path id="XMLID_1063_" d="M367.5,319.988a1.173,1.173,0,1,0,.828.343A1.18,1.18,0,0,0,367.5,319.988Z" transform="translate(-323.401 -282.491)" fill="#d81b60" stroke="#ec407a" stroke-width="2"/>
      <path id="XMLID_1068_" d="M227.172,491.988a1.172,1.172,0,1,0,.828.343A1.18,1.18,0,0,0,227.172,491.988Z" transform="translate(-199.516 -434.334)" fill="#d81b60" stroke="#ec407a" stroke-width="2"/>
    </g>
  </g>
</svg>
