<svg xmlns="http://www.w3.org/2000/svg" width="128" height="128" viewBox="0 0 128 128">
  <g id="Group_329" data-name="Group 329" transform="translate(-284 -403)">
    <rect id="Rectangle_895" data-name="Rectangle 895" width="128" height="128" transform="translate(284 403)" fill="#ec407a"/>
    <g id="Moftaki_Logo_Final_Present-03" transform="translate(-1809.456 6408.926)">
      <path id="Path_1437" data-name="Path 1437" d="M3327.775-5991.594a3.861,3.861,0,0,0-1.671.66,4.543,4.543,0,0,0-.849.855,4.525,4.525,0,0,0-.492.978,3.071,3.071,0,0,0-.165,1.114,3.369,3.369,0,0,0,.344,1.616,3.669,3.669,0,0,0,4.958,1.686,3.687,3.687,0,0,0,1.937-2.518,3.762,3.762,0,0,0-.129-1.967,3.676,3.676,0,0,0-2.74-2.381A5.248,5.248,0,0,0,3327.775-5991.594Z" transform="translate(-1185.081)" fill="#fff"/>
      <path id="Path_1438" data-name="Path 1438" d="M3277.334-5891.94a22.876,22.876,0,0,0-3.251.443,15.807,15.807,0,0,0-2.656.789,1.729,1.729,0,0,0-.882,1.1,2.317,2.317,0,0,0,0,.813c.021.091.045.22.052.287s.311,1.338.672,2.83.655,2.714.655,2.718-2.192.009-4.87.009c-5.415,0-5.035-.009-5.4.165a1.6,1.6,0,0,0-.779.78,1.468,1.468,0,0,0-.175.752,1.544,1.544,0,0,0,.191.8,1.711,1.711,0,0,0,1.073.851c.182.048.277.048,6.354.048,6.883,0,6.3.014,6.684-.173a1.38,1.38,0,0,0,.42-.317,1.284,1.284,0,0,0,.33-.442,1.777,1.777,0,0,0,.086-1.382c-.055-.234-.414-1.726-.8-3.316-.466-1.932-.691-2.9-.674-2.91.045-.026.78-.184,1.21-.258a15.707,15.707,0,0,1,8.076.632,14.423,14.423,0,0,1,4.248,2.448,10.155,10.155,0,0,1,.767.693c-.007,0-.215.062-.461.124a15.849,15.849,0,0,0-5.972,3,17.085,17.085,0,0,0-3.517,3.873,17.382,17.382,0,0,0-2.833,8.786,4.137,4.137,0,0,0,.057,1.351,1.69,1.69,0,0,0,1.714,1.174,1.555,1.555,0,0,0,.657-.18,1.674,1.674,0,0,0,.762-.774,2.065,2.065,0,0,0,.17-.973,14.612,14.612,0,0,1,.361-2.965,13.934,13.934,0,0,1,2.912-5.868,18.721,18.721,0,0,1,1.59-1.587,12.436,12.436,0,0,1,5.9-2.764,13.43,13.43,0,0,1,2-.179,1.663,1.663,0,0,0,1.549-.947,1.632,1.632,0,0,0,.165-.789c0-.6-.119-.827-.949-1.841a17.934,17.934,0,0,0-12.486-6.749A23.914,23.914,0,0,0,3277.334-5891.94Z" transform="translate(-1122.711 -97.264)" fill="#fff"/>
      <path id="Path_1439" data-name="Path 1439" d="M2171.261-5310.8a11.228,11.228,0,0,0-6.765,2.818,11.26,11.26,0,0,0-3.779,8.726,11.128,11.128,0,0,0,1.563,5.415,10.887,10.887,0,0,0,1.76,2.247,10.985,10.985,0,0,0,1.867,1.507l.3.19-4.975.008c-2.737,0-7.215,0-9.952,0l-4.975-.008.177-.117a11.537,11.537,0,0,0,3.1-3.1,12.539,12.539,0,0,0,1.116-2.113,11.255,11.255,0,0,0,.756-3.294,16.343,16.343,0,0,0-.038-2.121,11.136,11.136,0,0,0-2.417-5.773,11.267,11.267,0,0,0-6.811-4.038,8.711,8.711,0,0,0-1.948-.146,8.839,8.839,0,0,0-1.96.146,11.293,11.293,0,0,0-8.059,5.95,11.047,11.047,0,0,0-1.234,5.4,10.908,10.908,0,0,0,1.174,4.746,11.312,11.312,0,0,0,3.72,4.27l.275.188-11.463.013c-10.741.012-11.47.014-11.566.052a.988.988,0,0,0-.37,1.6.91.91,0,0,0,.435.27c.119.036,3.937.038,46.277.038h46.148l.146-.05a.988.988,0,0,0,.59-.521.753.753,0,0,0,.062-.409.709.709,0,0,0-.076-.433,1.011,1.011,0,0,0-.481-.459l-.16-.076-12.993-.012-12.993-.013.227-.141a12.216,12.216,0,0,0,1.088-.777,1.619,1.619,0,0,1,.287-.2c.026-.007,4.841-.294,10.7-.641,7.813-.461,10.6-.633,10.459-.645-.1-.01-4.408-.266-9.562-.569s-9.4-.56-9.433-.569l-.064-.017.191-.311a11.387,11.387,0,0,0,1.518-4.327l.019-.143.108-.017c.06-.009,3.232-.325,7.052-.7s6.976-.69,7.014-.7-2.921-.241-7.028-.552c-3.9-.3-7.1-.542-7.115-.549a3.6,3.6,0,0,1-.067-.381,10.763,10.763,0,0,0-1.066-3.42,11.123,11.123,0,0,0-1.076-1.76c-.055-.074-.057-.081-.017-.09.024-.007,2.52-.242,5.546-.524s5.506-.514,5.506-.521-3.034-.294-6.744-.641l-6.744-.626-.339-.225A11.206,11.206,0,0,0,2171.261-5310.8Zm1.549,3.021a8.218,8.218,0,0,1,4.32,1.779,12.817,12.817,0,0,1,1.272,1.27,8.314,8.314,0,0,1,1.791,4.468,11.423,11.423,0,0,1-.039,1.748,8.277,8.277,0,0,1-1.7,4.04,11.173,11.173,0,0,1-1.4,1.4,8.271,8.271,0,0,1-4.052,1.7,7.2,7.2,0,0,1-1.052.043,6.468,6.468,0,0,1-1.566-.134,8.207,8.207,0,0,1-3.7-1.767,8.289,8.289,0,0,1-2.945-5.6,10.777,10.777,0,0,1,.05-1.891,8.089,8.089,0,0,1,.765-2.462,8.268,8.268,0,0,1,6.538-4.59A11.576,11.576,0,0,1,2172.811-5307.779Zm-31.566.213a8.311,8.311,0,0,1,4.231,1.824,10.568,10.568,0,0,1,1.133,1.133,8.3,8.3,0,0,1,1.838,4.349,12.272,12.272,0,0,1-.012,1.875,8.307,8.307,0,0,1-1.7,4.1,10.253,10.253,0,0,1-1.2,1.24,8.272,8.272,0,0,1-4.387,1.882,9.992,9.992,0,0,1-1.817,0,8.472,8.472,0,0,1-3.132-1.014,8.566,8.566,0,0,1-2.84-2.65,8.2,8.2,0,0,1-.5-8.227,8.274,8.274,0,0,1,6.373-4.509,5.689,5.689,0,0,1,1.135-.047C2140.727-5307.6,2141.083-5307.588,2141.245-5307.566Z" transform="translate(0 -664.514)" fill="#fff"/>
      <path id="Path_1440" data-name="Path 1440" d="M4658.854-4869.765a.9.9,0,0,0-.523.48,1.132,1.132,0,0,0-.084.5,4.833,4.833,0,0,1-1.5,3.359,4.861,4.861,0,0,1-3.307,1.382,1.27,1.27,0,0,0-.437.069.988.988,0,0,0-.438.442.665.665,0,0,0-.069.376.662.662,0,0,0,.067.363.926.926,0,0,0,.443.433c.16.076.162.076.518.072a6.556,6.556,0,0,0,3.861-1.342,8.232,8.232,0,0,0,1.281-1.284,6.627,6.627,0,0,0,1.327-3.471,1.84,1.84,0,0,0-.06-.908.992.992,0,0,0-.437-.443A1.236,1.236,0,0,0,4658.854-4869.765Z" transform="translate(-2481.238 -1095)" fill="#fff"/>
      <path id="Path_1441" data-name="Path 1441" d="M3074.191-4863.723a.922.922,0,0,0-.555.49c-.06.129-.062.151-.06.517a6.227,6.227,0,0,0,.681,2.785,6.01,6.01,0,0,0,1.264,1.745,6,6,0,0,0,1.745,1.265,6.217,6.217,0,0,0,2.785.682l.383,0,.158-.076a.906.906,0,0,0,.423-.433.674.674,0,0,0,.065-.376.584.584,0,0,0-.077-.382.966.966,0,0,0-.413-.409,1.084,1.084,0,0,0-.5-.085,4.915,4.915,0,0,1-2.056-.521,4.894,4.894,0,0,1-2.18-2.187,4.919,4.919,0,0,1-.516-2.043c-.019-.347-.026-.38-.1-.514a.943.943,0,0,0-.411-.409.7.7,0,0,0-.335-.074A.969.969,0,0,0,3074.191-4863.723Z" transform="translate(-940.06 -1100.898)" fill="#fff"/>
      <path id="Path_1442" data-name="Path 1442" d="M5519.526-4094.731a.782.782,0,0,0-.488.45c-.034.1-.039,1.066-.039,10.024v9.914l.074.146a.633.633,0,0,0,.356.334.737.737,0,0,0,.952-.339l.064-.122.007-.753.007-.755.256.26a5.986,5.986,0,0,0,2.216,1.433,6.272,6.272,0,0,0,1.836.337c.385,0,.476-.02.657-.187a.689.689,0,0,0,.229-.538.663.663,0,0,0-.208-.521c-.167-.165-.284-.2-.7-.222a4.454,4.454,0,0,1-4.217-3.87,5,5,0,0,1-.029-.562,3.768,3.768,0,0,1,.129-1.059,4.442,4.442,0,0,1,3.569-3.316c.128-.021.387-.047.571-.057.395-.021.523-.064.681-.225a.659.659,0,0,0,.206-.519.7.7,0,0,0-.6-.717,5.234,5.234,0,0,0-1.128.072,5.9,5.9,0,0,0-3.212,1.69l-.258.263,0-5.322-.007-5.321-.05-.11a.814.814,0,0,0-.366-.363A1.03,1.03,0,0,0,5519.526-4094.731Z" transform="translate(-3327.024 -1851.519)" fill="#fff"/>
      <path id="Path_1443" data-name="Path 1443" d="M2151.675-4093.8a5.926,5.926,0,0,0-5.066,4.686c-.115.566-.11.244-.11,8.164v7.471l.067.136a.747.747,0,0,0,1.157.225.837.837,0,0,0,.155-.225l.079-.16.012-7.518.015-7.519.052-.229a4.5,4.5,0,0,1,1.427-2.489,4.455,4.455,0,0,1,3.378-1.093,4.414,4.414,0,0,1,2.63,1.227,4.468,4.468,0,0,1,1.346,2.74c.019.153.033.935.043,2.426l.014,2.2.064.113a.8.8,0,0,0,.421.344.748.748,0,0,0,.8-.237c.17-.215.163-.117.163-2.5,0-1.354.01-2.221.026-2.369a4.4,4.4,0,0,1,1.329-2.708,3.812,3.812,0,0,1,.677-.547,4.453,4.453,0,0,1,2.84-.691,4.436,4.436,0,0,1,2.673,1.258,4.523,4.523,0,0,1,1.248,2.29l.064.287.012,7.518.012,7.519.05.11a.731.731,0,0,0,.56.426.733.733,0,0,0,.782-.4l.067-.136v-7.458c0-8,.007-7.574-.122-8.212a6.183,6.183,0,0,0-.823-2,5.928,5.928,0,0,0-3.479-2.51,4.8,4.8,0,0,0-1.482-.167,4.632,4.632,0,0,0-1.4.148,5.969,5.969,0,0,0-3.71,2.773.369.369,0,0,1-.069.1,1.846,1.846,0,0,1-.151-.229,5.639,5.639,0,0,0-.863-1.076,5.494,5.494,0,0,0-1.625-1.16,5.97,5.97,0,0,0-1.907-.545A8.585,8.585,0,0,0,2151.675-4093.8Z" transform="translate(-35.146 -1852.407)" fill="#fff"/>
      <path id="Path_1444" data-name="Path 1444" d="M3666.523-4093.858a5.914,5.914,0,0,0-4.5,3.151,5.809,5.809,0,0,0-.643,2.252c-.012.158-.024,1.042-.024,1.965v1.678l-.925.007c-.918.007-.93.007-1.054.064a.841.841,0,0,0-.4.436.759.759,0,0,0,.234.815c.2.155.249.163,1.253.163h.892l0,4.894.007,4.9.05.11a.739.739,0,0,0,1.04.339.708.708,0,0,0,.313-.342l.055-.107.007-4.9,0-4.894h12.883l.01,2.563c.007,2.845,0,2.711.172,3.38a5.939,5.939,0,0,0,3.8,4.114,6.646,6.646,0,0,0,1.085.263,8.043,8.043,0,0,0,1.676,0,6.006,6.006,0,0,0,2.869-1.255,5.973,5.973,0,0,0,2.113-3.6,5.963,5.963,0,0,0,.079-1.03.736.736,0,0,0-.435-.636.831.831,0,0,0-.588,0c-.315.141-.452.406-.452.877a4.454,4.454,0,0,1-1.126,2.751,4.44,4.44,0,0,1-3.607,1.473,4.444,4.444,0,0,1-4.109-4c-.017-.148-.026-1.088-.026-2.563v-2.331l1.358-.007,1.355-.007.12-.06a.772.772,0,0,0,.349-.349.59.59,0,0,0,.057-.32.55.55,0,0,0-.064-.325.868.868,0,0,0-.375-.354c-.107-.05-.139-.05-1.454-.058l-1.346-.007,0-4.284-.007-4.284-.064-.12a.691.691,0,0,0-.61-.39.64.64,0,0,0-.56.208c-.234.234-.213-.22-.213,4.621v4.25h-12.885v-1.771a19.688,19.688,0,0,1,.038-2.027,4.447,4.447,0,0,1,3.959-3.8,4.458,4.458,0,0,1,2.372.426,4.544,4.544,0,0,1,2.049,2.048,4.661,4.661,0,0,1,.449,1.793,1.006,1.006,0,0,0,.082.479.778.778,0,0,0,.392.354,1.04,1.04,0,0,0,.28.039.7.7,0,0,0,.65-.416.828.828,0,0,0,.058-.433,5.817,5.817,0,0,0-1.7-4.023,5.747,5.747,0,0,0-1.606-1.152,5.75,5.75,0,0,0-1.633-.531A8.769,8.769,0,0,0,3666.523-4093.858Z" transform="translate(-1511.427 -1852.353)" fill="#fff"/>
      <path id="Path_1445" data-name="Path 1445" d="M2362.2-3988.814a.369.369,0,0,0,0,.621.724.724,0,0,0,.294.063,2.881,2.881,0,0,1,1.549.542,2.831,2.831,0,0,1,1.157,2.151.759.759,0,0,0,.06.306.372.372,0,0,0,.6.036c.057-.062.06-.074.06-.39a3.351,3.351,0,0,0-1.059-2.376,3.387,3.387,0,0,0-2.252-.99C2362.3-3988.862,2362.269-3988.86,2362.2-3988.814Z" transform="translate(-245.52 -1954.877)" fill="#fff"/>
      <path id="Path_1446" data-name="Path 1446" d="M2799.177-3988.948a.315.315,0,0,0-.177.309.328.328,0,0,0,.172.322,1.566,1.566,0,0,0,.368.063,2.818,2.818,0,0,1,1.007.265,2.816,2.816,0,0,1,1.453,1.6,2.723,2.723,0,0,1,.153.782.761.761,0,0,0,.072.349.372.372,0,0,0,.631-.031c.038-.072.043-.122.031-.361a3.536,3.536,0,0,0-2.99-3.308A1.482,1.482,0,0,0,2799.177-3988.948Z" transform="translate(-672.048 -1954.744)" fill="#fff"/>
      <path id="Path_1447" data-name="Path 1447" d="M3977.172-3988.92a.362.362,0,0,0-.172.306.339.339,0,0,0,.115.272c.069.076.093.081.459.115a2.77,2.77,0,0,1,1.767.815,2.817,2.817,0,0,1,.83,1.879.687.687,0,0,0,.06.292.369.369,0,0,0,.622,0c.046-.071.048-.1.036-.4a3.35,3.35,0,0,0-1.028-2.285,3.356,3.356,0,0,0-1.394-.868A2.444,2.444,0,0,0,3977.172-3988.92Z" transform="translate(-1821.887 -1954.769)" fill="#fff"/>
      <path id="Path_1448" data-name="Path 1448" d="M5880.262-3850.866a1.441,1.441,0,0,0-.915,2.049,1.569,1.569,0,0,0,.629.624,1.4,1.4,0,0,0,1.651-.27,1.359,1.359,0,0,0,.429-1.009,1.424,1.424,0,0,0-.795-1.284,1.832,1.832,0,0,0-.324-.122A1.939,1.939,0,0,0,5880.262-3850.866Zm.675.528a1.017,1.017,0,0,1,.416.311.918.918,0,0,1-.213,1.305.92.92,0,0,1-1.392-.483,1.021,1.021,0,0,1,.041-.653A.926.926,0,0,1,5880.937-3850.337Z" transform="translate(-3678.604 -2089.534)" fill="#fff"/>
      <path id="Path_1449" data-name="Path 1449" d="M5908.985-3714.692a.867.867,0,0,0-.428.4l-.058.127v10.686l.058.127a.81.81,0,0,0,.45.4.742.742,0,0,0,.887-.38l.064-.125v-10.734l-.064-.125a.8.8,0,0,0-.349-.344A.91.91,0,0,0,5908.985-3714.692Z" transform="translate(-3707.213 -2222.459)" fill="#fff"/>
      <path id="Path_1450" data-name="Path 1450" d="M3141.935-3712.5a5.9,5.9,0,0,0-4.925,3.335,5.773,5.773,0,0,0-.526,1.7,8,8,0,0,0,0,1.709,5.928,5.928,0,0,0,2.323,3.89,5.887,5.887,0,0,0,3.9,1.154,5.811,5.811,0,0,0,3.736-1.661,5.858,5.858,0,0,0,1.752-3.479c.017-.131.031-.447.031-.753a4.936,4.936,0,0,0-.113-1.207,5.943,5.943,0,0,0-3.944-4.409A6.223,6.223,0,0,0,3141.935-3712.5Zm1.252,1.542a4.393,4.393,0,0,1,2.338,1.284,4.343,4.343,0,0,1,1.236,3.067,4.344,4.344,0,0,1-1.236,3.067,4.418,4.418,0,0,1-2.35,1.289,3.055,3.055,0,0,1-.82.065,3.371,3.371,0,0,1-1.143-.132,4.3,4.3,0,0,1-2.1-1.245,4.34,4.34,0,0,1-1.052-1.836,3.92,3.92,0,0,1-.165-1.207,3.92,3.92,0,0,1,.165-1.207,4.321,4.321,0,0,1,1.064-1.848,4.469,4.469,0,0,1,2.678-1.355,6.191,6.191,0,0,1,.621-.012A3.241,3.241,0,0,1,3143.187-3710.961Z" transform="translate(-1001.419 -2224.611)" fill="#fff"/>
      <path id="Path_1451" data-name="Path 1451" d="M3371.369-3478.078c-.129.086-.163.17-.184.476a2.3,2.3,0,0,1-.134.709,2.812,2.812,0,0,1-.727,1.15,2.646,2.646,0,0,1-.746.511,2.792,2.792,0,0,1-1.021.265c-.335.029-.416.063-.49.2a.435.435,0,0,0,.038.414c.112.122.172.136.488.122a3.914,3.914,0,0,0,.483-.052,3.55,3.55,0,0,0,2.845-3.3c.01-.26.007-.294-.038-.366A.4.4,0,0,0,3371.369-3478.078Z" transform="translate(-1227.478 -2453.397)" fill="#fff"/>
      <path id="Path_1452" data-name="Path 1452" d="M4933.1-3712.4a5.848,5.848,0,0,0-3.777,1.721,5.848,5.848,0,0,0-1.687,3.418,6.432,6.432,0,0,0,.1,2.075,5.89,5.89,0,0,0,1.587,2.85,5.894,5.894,0,0,0,3.5,1.7c.132.014.434.028.67.028a5.519,5.519,0,0,0,1.865-.3,5.934,5.934,0,0,0,2.324-1.446l.268-.268.007.744c.007.722.01.75.063.855a.717.717,0,0,0,.662.411.659.659,0,0,0,.536-.236c.208-.227.193,0,.193-3.02,0-1.592-.01-2.806-.026-3.012a5.728,5.728,0,0,0-.6-2.237,5.907,5.907,0,0,0-4.53-3.249A6.849,6.849,0,0,0,4933.1-3712.4Zm.957,1.492a4.455,4.455,0,0,1,3.12,1.938,4.412,4.412,0,0,1,0,4.925,4.422,4.422,0,0,1-5.654,1.506,4.388,4.388,0,0,1-1.709-1.506,4.424,4.424,0,0,1,1.709-6.431A4.467,4.467,0,0,1,4934.062-3710.909Z" transform="translate(-2749.759 -2224.714)" fill="#fff"/>
      <path id="Path_1453" data-name="Path 1453" d="M5160.371-3478.014c-.146.089-.158.122-.194.466-.017.177-.048.39-.067.474a2.838,2.838,0,0,1-1.19,1.709,2.772,2.772,0,0,1-1.367.464.959.959,0,0,0-.373.067.374.374,0,0,0,0,.626c.071.045.1.048.377.038a3.364,3.364,0,0,0,2.31-1.03,3.352,3.352,0,0,0,1.028-2.286c.012-.3.009-.33-.036-.4A.375.375,0,0,0,5160.371-3478.014Z" transform="translate(-2973.69 -2453.462)" fill="#fff"/>
      <path id="Path_1454" data-name="Path 1454" d="M4585.337-3478.078c-.129.086-.163.17-.184.476a2.8,2.8,0,0,1-.55,1.51,2.857,2.857,0,0,1-1.052.861,2.919,2.919,0,0,1-1.023.265c-.33.029-.413.06-.485.185a.431.431,0,0,0-.043.2.263.263,0,0,0,.063.208c.115.136.176.153.512.136a3.418,3.418,0,0,0,2.283-1.033,3.433,3.433,0,0,0,1.03-2.319c.012-.26.01-.294-.036-.366A.4.4,0,0,0,4585.337-3478.078Z" transform="translate(-2412.424 -2453.397)" fill="#fff"/>
      <path id="Path_1455" data-name="Path 1455" d="M3336.181-2866.717a1.476,1.476,0,0,0-1.056.935,1.965,1.965,0,0,0-.046.779,1.5,1.5,0,0,0,1.045,1.083,1.893,1.893,0,0,0,.715,0,1.441,1.441,0,0,0,.736-.461l.079-.1.132.139a1.535,1.535,0,0,0,.579.382,1.8,1.8,0,0,0,.815.039,1.468,1.468,0,0,0,1.054-1.043,1.8,1.8,0,0,0-.036-.83,1.45,1.45,0,0,0-1.453-.954,1.37,1.37,0,0,0-.918.423l-.163.16-.16-.16a1.357,1.357,0,0,0-.947-.421A1.4,1.4,0,0,0,3336.181-2866.717Zm.7.581a.916.916,0,0,1-.072,1.681,1,1,0,0,1-.662,0,1.053,1.053,0,0,1-.514-.514.949.949,0,0,1,.007-.689.936.936,0,0,1,.55-.521.8.8,0,0,1,.33-.038A.7.7,0,0,1,3336.879-2866.136Zm2.25-.045a.9.9,0,0,1,.621.875.775.775,0,0,1-.268.636.775.775,0,0,1-.636.268.9.9,0,0,1-.916-.975A.915.915,0,0,1,3339.129-2866.182Z" transform="translate(-1195.292 -3050.161)" fill="#fff"/>
      <path id="Path_1456" data-name="Path 1456" d="M5006.268-2866.7a1.482,1.482,0,0,0-1.052.927,1.8,1.8,0,0,0-.038.815,1.46,1.46,0,0,0,1.057,1.056,1.82,1.82,0,0,0,.82-.038,1.45,1.45,0,0,0,.759-2.08,1.723,1.723,0,0,0-.518-.519A1.525,1.525,0,0,0,5006.268-2866.7Zm.7.581a1,1,0,0,1,.442.454.669.669,0,0,1,.064.375.663.663,0,0,1-.069.383.944.944,0,0,1-.988.516.989.989,0,0,1-.7-.569.963.963,0,0,1,.137-.9A.923.923,0,0,1,5006.968-2866.115Z" transform="translate(-2825.456 -3050.183)" fill="#fff"/>
      <path id="Path_1457" data-name="Path 1457" d="M5680.149-2866.584a1.474,1.474,0,0,0-1.111.978,1.658,1.658,0,0,0,0,.884,1.58,1.58,0,0,0,.436.648,1.459,1.459,0,0,0,.822.335c.046,0,.084.009.084.021a2.836,2.836,0,0,1-.641.409,4.43,4.43,0,0,1-.868.311c-.234.055-.282.082-.322.18a.254.254,0,0,0,.055.284c.091.093.16.093.482.012a4.143,4.143,0,0,0,1.989-1.114,3.438,3.438,0,0,0,.7-1.081,1.744,1.744,0,0,0,.033-.777,1.492,1.492,0,0,0-.969-1.045A1.872,1.872,0,0,0,5680.149-2866.584Zm.639.591a.884.884,0,0,1,.517.652.917.917,0,0,1-1.037,1.078.938.938,0,0,1-.693-.523.688.688,0,0,1-.065-.387.651.651,0,0,1,.066-.382,1.1,1.1,0,0,1,.388-.412.818.818,0,0,1,.479-.107A.727.727,0,0,1,5680.788-2865.994Z" transform="translate(-3482.74 -3050.306)" fill="#fff"/>
      <path id="Path_1458" data-name="Path 1458" d="M2362.133-2842.686a.8.8,0,0,0-.492.409.523.523,0,0,0-.055.311.565.565,0,0,0,.063.325.851.851,0,0,0,.375.354l.109.05H2382.5l.134-.062a.68.68,0,0,0,.423-.634.539.539,0,0,0-.048-.325.707.707,0,0,0-.349-.37l-.136-.067-10.16-.005C2366.778-2842.7,2362.174-2842.695,2362.133-2842.686Z" transform="translate(-245.091 -3073.633)" fill="#fff"/>
      <path id="Path_1459" data-name="Path 1459" d="M2149.022-2590.633a5.967,5.967,0,0,0-1.948.469,5.793,5.793,0,0,0-1.79,1.2,5.634,5.634,0,0,0-1.2,1.65,5.231,5.231,0,0,0-.43,1.164,4.664,4.664,0,0,0-.156,1.453,4.486,4.486,0,0,0,.055.963,5.926,5.926,0,0,0,2.563,3.949,5.871,5.871,0,0,0,2.3.921,7.656,7.656,0,0,0,1.719.038,5.794,5.794,0,0,0,1.138-.256,5.95,5.95,0,0,0,3.775-3.787,5.969,5.969,0,0,0,.3-1.829,4.486,4.486,0,0,1,.16-1.2,4.492,4.492,0,0,1,2.914-3.058,3.586,3.586,0,0,1,1.384-.206,3.426,3.426,0,0,1,.825.055,4.487,4.487,0,0,1,3.416,3.007,4.27,4.27,0,0,1,.22,1.348,6.032,6.032,0,0,0,.395,2.145,6.064,6.064,0,0,0,2.393,2.917,6.4,6.4,0,0,0,1.848.758,5.192,5.192,0,0,0,1.435.126,5.042,5.042,0,0,0,1.4-.181,5.981,5.981,0,0,0,3.411-2.462c.237-.356.232-.351.244-.325l.17.275a5.957,5.957,0,0,0,4.3,2.749c.8.1,2.376.105,21.025.143l14.714.029.311-.062a11.077,11.077,0,0,0,4.327-1.984,12.113,12.113,0,0,0,2.273-2.273,12.115,12.115,0,0,0,.763-1.124c.129-.21.29-.469.356-.574l.122-.191.017.49a5.772,5.772,0,0,0,1.186,3.378,7.363,7.363,0,0,0,.973,1.013,6.317,6.317,0,0,0,2.379,1.176,4.828,4.828,0,0,0,1.375.134,4.418,4.418,0,0,0,.951-.055,5.906,5.906,0,0,0,2.3-.913,5.747,5.747,0,0,0,2.039-2.331,5.8,5.8,0,0,0,.564-1.865,8.59,8.59,0,0,0-.012-1.525,5.973,5.973,0,0,0-1.124-2.73,7.893,7.893,0,0,0-1.167-1.179,5.937,5.937,0,0,0-2.771-1.138,9.934,9.934,0,0,0-1.375-.074,5.8,5.8,0,0,0-2.336.686,12.365,12.365,0,0,0-4.669,4.824,10.409,10.409,0,0,1-3.412,3.562,6.873,6.873,0,0,1-1.08.569c.012-.017.083-.112.158-.21a6.48,6.48,0,0,0,.817-1.513,6.1,6.1,0,0,0,.218-3.271,6.007,6.007,0,0,0-1.14-2.4,7.233,7.233,0,0,0-.916-.923,6.018,6.018,0,0,0-3.052-1.281,9.023,9.023,0,0,0-1.322,0,5.942,5.942,0,0,0-4.564,3.108,5.763,5.763,0,0,0-.677,2.952,5.585,5.585,0,0,0,.6,2.424,5.8,5.8,0,0,0,1.121,1.561l.258.258h-2.2c-7.293,0-25.993-.052-26.077-.074a3.36,3.36,0,0,0-.456-.046,4.413,4.413,0,0,1-2.919-1.3,4.439,4.439,0,0,1-1.25-2.429,22.5,22.5,0,0,1-.058-3l0-2.7-.052-.113a.824.824,0,0,0-.373-.38.8.8,0,0,0-.626.007.812.812,0,0,0-.351.366l-.055.12-.014,2.725c-.014,2.948-.01,2.823-.146,3.311a4.465,4.465,0,0,1-2.333,2.854,4.455,4.455,0,0,1-5.812-1.719,4.083,4.083,0,0,1-.387-.846,4.245,4.245,0,0,1-.237-1.4c-.014-.3-.036-.641-.048-.753a5.959,5.959,0,0,0-3.959-4.884,5.4,5.4,0,0,0-1.9-.313,5.5,5.5,0,0,0-1.872.282,5.961,5.961,0,0,0-3.7,3.51,6.2,6.2,0,0,0-.406,2.219,4.242,4.242,0,0,1-.217,1.3,4.479,4.479,0,0,1-4.246,3.074,4.485,4.485,0,0,1-4.354-3.538,4.467,4.467,0,0,1,2.424-4.939,4.435,4.435,0,0,1,1.736-.44,1.2,1.2,0,0,0,.5-.079.618.618,0,0,0,.351-.332.553.553,0,0,0,.074-.33.573.573,0,0,0-.072-.33.694.694,0,0,0-.705-.4C2149.226-2590.641,2149.075-2590.638,2149.022-2590.633Zm64.451,1.731a4.489,4.489,0,0,1,2.957,1.6,4.421,4.421,0,0,1,.792,4.193,5.428,5.428,0,0,1-.6,1.186,5.442,5.442,0,0,1-.811.863,4.416,4.416,0,0,1-4.358.724,4.26,4.26,0,0,1-1.542-.985,4.395,4.395,0,0,1-.9-5.085,4.453,4.453,0,0,1,3.421-2.484A5.208,5.208,0,0,1,2213.473-2588.9Zm17.071.081a4.459,4.459,0,0,1,3.526,3.827,6.012,6.012,0,0,1-.048,1.36,4.479,4.479,0,0,1-2.921,3.356,4.416,4.416,0,0,1-4.511-1.009,4.441,4.441,0,0,1-1.344-2.761,4.452,4.452,0,0,1,3.251-4.7,3.581,3.581,0,0,1,1.255-.141A3.4,3.4,0,0,1,2230.544-2588.822Z" transform="translate(-32.218 -3319.668)" fill="#fff"/>
      <path id="Path_1460" data-name="Path 1460" d="M5039.445-2347.951c-.15.1-.172.153-.193.478a2.7,2.7,0,0,1-.464,1.382,2.812,2.812,0,0,1-2.2,1.258c-.255.017-.325.041-.416.138a.287.287,0,0,0-.069.2.332.332,0,0,0,.158.347c.077.048.1.048.418.036a3.338,3.338,0,0,0,2.278-1.031,3.369,3.369,0,0,0,1.028-2.3c.014-.3.012-.313-.043-.395A.371.371,0,0,0,5039.445-2347.951Z" transform="translate(-2855.669 -3556.503)" fill="#fff"/>
      <path id="Path_1461" data-name="Path 1461" d="M5728.445-2347.951c-.15.1-.172.153-.194.478a2.7,2.7,0,0,1-.464,1.382,2.812,2.812,0,0,1-2.2,1.258c-.256.017-.326.041-.416.138a.289.289,0,0,0-.07.2.333.333,0,0,0,.158.347c.074.046.1.048.406.036a2.839,2.839,0,0,0,.927-.172,3.348,3.348,0,0,0,1.363-.858,3.366,3.366,0,0,0,1.027-2.3c.015-.3.013-.313-.043-.395A.371.371,0,0,0,5728.445-2347.951Z" transform="translate(-3528.197 -3556.503)" fill="#fff"/>
      <path id="Path_1462" data-name="Path 1462" d="M2363.516-2347.9a.4.4,0,0,0-.191.387,2.964,2.964,0,0,1-.273,1.133,2.931,2.931,0,0,1-1.267,1.3,2.835,2.835,0,0,1-1.155.3c-.279.02-.373.065-.44.211a.315.315,0,0,0,0,.318c.072.16.158.2.442.2a3.48,3.48,0,0,0,2.474-1.116,3.522,3.522,0,0,0,.932-2.044c.033-.332.031-.421-.026-.538A.366.366,0,0,0,2363.516-2347.9Z" transform="translate(-243.688 -3556.562)" fill="#fff"/>
      <path id="Path_1463" data-name="Path 1463" d="M3244.2-2347.915c-.153.1-.175.153-.2.464a3.622,3.622,0,0,1-.046.4,3.213,3.213,0,0,1-.437,1.028,3.916,3.916,0,0,1-.614.646,2.89,2.89,0,0,1-1.566.576c-.263.017-.335.043-.428.153a.4.4,0,0,0-.014.418c.088.143.165.165.528.148a3.34,3.34,0,0,0,1.752-.583,4.271,4.271,0,0,0,.956-.944,3.56,3.56,0,0,0,.6-1.8c.012-.224.007-.28-.029-.354A.365.365,0,0,0,3244.2-2347.915Z" transform="translate(-1103.336 -3556.54)" fill="#fff"/>
    </g>
  </g>
</svg>
